<svg viewBox="0 0 632 2413" fill="none" xmlns="http://www.w3.org/2000/svg">
<g id="floor2-mobile">
<g id="Group 4">
<rect id="Rectangle 105" x="0.5" y="1786.5" width="131" height="73" stroke="black"/>
<g id="Union">
<mask id="path-2-inside-1" fill="white">
<path fill-rule="evenodd" clip-rule="evenodd" d="M229 0L423 0V72L231 72V166H230H206H131V59L206 59H229V0Z"/>
</mask>
<path fill-rule="evenodd" clip-rule="evenodd" d="M229 0L423 0V72L231 72V166H230H206H131V59L206 59H229V0Z" fill="#E5E5E5"/>
<path d="M423 0L424 0V-1H423V0ZM229 0V-1H228V0L229 0ZM423 72V73H424V72H423ZM231 72V71H230V72H231ZM231 166V167H232V166H231ZM131 166H130V167H131V166ZM131 59V58H130V59H131ZM229 59V60H230V59H229ZM423 -1L229 -1V1L423 1V-1ZM424 72V0L422 0V72H424ZM231 73L423 73V71L231 71V73ZM232 166V72H230V166H232ZM230 167H231V165H230V167ZM230 165H206V167H230V165ZM131 167H206V165H131V167ZM130 59V166H132V59H130ZM206 58L131 58V60L206 60V58ZM206 60H229V58H206V60ZM228 0V59H230V0L228 0Z" fill="black" mask="url(#path-2-inside-1)"/>
</g>
<rect id="2269" x="229.5" y="71.5" width="193" height="94" fill="#C4C4C4" stroke="black"/>
<rect id="2465" x="324.5" y="263.5" width="98" height="173" fill="#C4C4C4" stroke="black"/>
<rect id="Rectangle 112" x="229.5" y="395.5" width="95" height="41" fill="#C4C4C4" stroke="black"/>
<rect id="Rectangle 113" x="229.5" y="362.5" width="95" height="33" fill="#EDDEB7" stroke="black"/>
<rect id="Rectangle 114" x="229.5" y="323.5" width="31" height="39" fill="#C4C4C4" stroke="black"/>
<rect id="Rectangle 115" x="260.5" y="323.5" width="33" height="39" fill="#C4C4C4" stroke="black"/>
<rect id="Rectangle 116" x="293.5" y="323.5" width="31" height="39" fill="#C4C4C4" stroke="black"/>
<rect id="Rectangle 117" x="229.5" y="267.5" width="95" height="56" fill="#C4C4C4" stroke="black"/>
<rect id="Rectangle 118" x="249.5" y="234.5" width="19" height="33" fill="#C4C4C4" stroke="black"/>
<rect id="Rectangle 119" x="268.5" y="234.5" width="18" height="33" fill="#C4C4C4" stroke="black"/>
<rect id="Rectangle 120" x="286.5" y="234.5" width="38" height="33" fill="#C4C4C4" stroke="black"/>
<rect id="Rectangle 121" x="229.5" y="234.5" width="20" height="33" fill="#C4C4C4" stroke="black"/>
<rect id="2167" x="131.5" y="165.5" width="75" height="75" fill="#C4C4C4" stroke="black"/>
<rect id="2166" x="131.5" y="240.5" width="75" height="72" fill="#C4C4C4" stroke="black"/>
<rect id="2164" x="131.5" y="312.5" width="75" height="50" fill="#C4C4C4" stroke="black"/>
<g id="Union_2">
<mask id="path-19-inside-2" fill="white">
<path fill-rule="evenodd" clip-rule="evenodd" d="M206 165H229H230H324L423 165V235V264H324V235H230V437H229H206H131V362H206V165Z"/>
</mask>
<path fill-rule="evenodd" clip-rule="evenodd" d="M206 165H229H230H324L423 165V235V264H324V235H230V437H229H206H131V362H206V165Z" fill="#EDDEB7"/>
<path d="M206 165V164H205V165H206ZM423 165H424V164H423V165ZM423 264V265H424V264H423ZM324 264H323V265H324V264ZM324 235H325V234H324V235ZM230 235V234H229V235H230ZM230 437V438H231V437H230ZM131 437H130V438H131V437ZM131 362V361H130V362H131ZM206 362V363H207V362H206ZM229 164H206V166H229V164ZM230 164H229V166H230V164ZM324 164H230V166H324V164ZM423 164L324 164V166L423 166V164ZM424 235V165H422V235H424ZM424 264V235H422V264H424ZM324 265H423V263H324V265ZM323 235V264H325V235H323ZM230 236H324V234H230V236ZM231 437V235H229V437H231ZM229 438H230V436H229V438ZM206 438H229V436H206V438ZM131 438H206V436H131V438ZM130 362V437H132V362H130ZM206 361H131V363H206V361ZM205 165V362H207V165H205Z" fill="black" mask="url(#path-19-inside-2)"/>
</g>
<g >
<mask id="path-21-inside-3" fill="white">
<path fill-rule="evenodd" clip-rule="evenodd" d="M283 487H270V545H283V593H423V545V487H283Z"/>
</mask>
<path id="2458" fill-rule="evenodd" clip-rule="evenodd" d="M283 487H270V545H283V593H423V545V487H283Z" fill="#C4C4C4"/>
<path d="M270 487V486H269V487H270ZM270 545H269V546H270V545ZM283 545H284V544H283V545ZM283 593H282V594H283V593ZM423 593V594H424V593H423ZM423 487H424V486H423V487ZM270 488H283V486H270V488ZM271 545V487H269V545H271ZM283 544H270V546H283V544ZM284 593V545H282V593H284ZM423 592H283V594H423V592ZM422 545V593H424V545H422ZM422 487V545H424V487H422ZM283 488H423V486H283V488Z" fill="black" mask="url(#path-21-inside-3)"/>
</g>
<rect id="2256" x="229.5" y="544.5" width="54" height="48" fill="#C4C4C4" stroke="black"/>
<rect id="2255" x="229.5" y="592.5" width="54" height="51" fill="#C4C4C4" stroke="black"/>
<g >
<mask id="path-25-inside-4" fill="white">
<path fill-rule="evenodd" clip-rule="evenodd" d="M423 592H283V643H255V692H283H423V643V592Z"/>
</mask>
<path id="2453" fill-rule="evenodd" clip-rule="evenodd" d="M423 592H283V643H255V692H283H423V643V592Z" fill="#C4C4C4"/>
<path d="M283 592V591H282V592H283ZM423 592H424V591H423V592ZM283 643V644H284V643H283ZM255 643V642H254V643H255ZM255 692H254V693H255V692ZM423 692V693H424V692H423ZM283 593H423V591H283V593ZM284 643V592H282V643H284ZM255 644H283V642H255V644ZM256 692V643H254V692H256ZM283 691H255V693H283V691ZM423 691H283V693H423V691ZM422 643V692H424V643H422ZM422 592V643H424V592H422Z" fill="black" mask="url(#path-25-inside-4)"/>
</g>
<g >
<mask id="path-27-inside-5" fill="white">
<path fill-rule="evenodd" clip-rule="evenodd" d="M423 691H255V735H283V824H423V735V692.015V691Z"/>
</mask>
<path id="2452" fill-rule="evenodd" clip-rule="evenodd" d="M423 691H255V735H283V824H423V735V692.015V691Z" fill="#C4C4C4"/>
<path d="M255 691V690H254V691H255ZM423 691H424V690H423V691ZM255 735H254V736H255V735ZM283 735H284V734H283V735ZM283 824H282V825H283V824ZM423 824V825H424V824H423ZM255 692H423V690H255V692ZM256 735V691H254V735H256ZM283 734H255V736H283V734ZM284 824V735H282V824H284ZM423 823H283V825H423V823ZM422 735V824H424V735H422ZM422 692.015V735H424V692.015H422ZM422 691V692.015H424V691H422Z" fill="black" mask="url(#path-27-inside-5)"/>
</g>
<rect id="Rectangle 135" x="229.5" y="734.5" width="54" height="53" fill="#C4C4C4" stroke="black"/>
<rect id="Rectangle 136" x="229.5" y="823.5" width="54" height="41" fill="#C4C4C4" stroke="black"/>
<rect id="Rectangle 137" x="250.5" y="787.5" width="33" height="18" fill="#C4C4C4" stroke="black"/>
<rect id="Rectangle 138" x="250.5" y="805.5" width="33" height="18" fill="#C4C4C4" stroke="black"/>
<rect id="Rectangle 139" x="283.5" y="823.5" width="41" height="78" fill="#C4C4C4" stroke="black"/>
<rect id="Rectangle 140" x="229.5" y="864.5" width="54" height="37" fill="#C4C4C4" stroke="black"/>
<rect id="Rectangle 141" x="229.5" y="901.5" width="95" height="34" fill="#C4C4C4" stroke="black"/>
<rect id="Rectangle 142" x="229.5" y="935.5" width="13" height="43" fill="#C4C4C4" stroke="black"/>
<rect id="Rectangle 143" x="242.5" y="935.5" width="82" height="43" fill="#C4C4C4" stroke="black"/>
<rect id="Rectangle 144" x="131.5" y="544.5" width="50" height="133" fill="#C4C4C4" stroke="black"/>
<rect id="Rectangle 152" x="131.5" y="853.5" width="32" height="100" fill="#C4C4C4" stroke="black"/>
<g >
<mask id="path-40-inside-6" fill="white">
<path fill-rule="evenodd" clip-rule="evenodd" d="M423 823H324V978H229V1014H324H423V978V823Z"/>
</mask>
<path id="2443" fill-rule="evenodd" clip-rule="evenodd" d="M423 823H324V978H229V1014H324H423V978V823Z" fill="#C4C4C4"/>
<path d="M324 823V822H323V823H324ZM423 823H424V822H423V823ZM324 978V979H325V978H324ZM229 978V977H228V978H229ZM229 1014H228V1015H229V1014ZM423 1014V1015H424V1014H423ZM324 824H423V822H324V824ZM325 978V823H323V978H325ZM229 979H324V977H229V979ZM230 1014V978H228V1014H230ZM324 1013H229V1015H324V1013ZM423 1013H324V1015H423V1013ZM422 978V1014H424V978H422ZM422 823V978H424V823H422Z" fill="black" mask="url(#path-40-inside-6)"/>
</g>
<g >
<mask id="path-42-inside-7" fill="white">
<path fill-rule="evenodd" clip-rule="evenodd" d="M423 1013H283V1096H229V1172H283H414H423V1013Z"/>
</mask>
<path id="2438" fill-rule="evenodd" clip-rule="evenodd" d="M423 1013H283V1096H229V1172H283H414H423V1013Z" fill="#C4C4C4"/>
<path d="M283 1013V1012H282V1013H283ZM423 1013H424V1012H423V1013ZM283 1096V1097H284V1096H283ZM229 1096V1095H228V1096H229ZM229 1172H228V1173H229V1172ZM423 1172V1173H424V1172H423ZM283 1014H423V1012H283V1014ZM284 1096V1013H282V1096H284ZM229 1097H283V1095H229V1097ZM230 1172V1096H228V1172H230ZM283 1171H229V1173H283V1171ZM414 1171H283V1173H414V1171ZM423 1171H414V1173H423V1171ZM422 1013V1172H424V1013H422Z" fill="black" mask="url(#path-42-inside-7)"/>
</g>
<rect id="2240" x="229.5" y="1053.5" width="54" height="43" fill="#C4C4C4" stroke="black"/>
<rect id="2428" x="323.5" y="1345.5" width="99" height="162" fill="#C4C4C4" stroke="black"/>
<rect id="Rectangle 159" x="278.5" y="1345.5" width="45" height="85" fill="#C4C4C4" stroke="black"/>
<rect id="Rectangle 160" x="229.5" y="1345.5" width="49" height="48" fill="#C4C4C4" stroke="black"/>
<rect id="Rectangle 161" x="229.5" y="1393.5" width="49" height="37" fill="#C4C4C4" stroke="black"/>
<rect id="Rectangle 162" x="229.5" y="1430.5" width="94" height="34" fill="#C4C4C4" stroke="black"/>
<rect id="Rectangle 163" x="229.5" y="1464.5" width="14" height="26" fill="#C4C4C4" stroke="black"/>
<rect id="Rectangle 164" x="229.5" y="1490.5" width="14" height="17" fill="#C4C4C4" stroke="black"/>
<rect id="Rectangle 165" x="243.5" y="1464.5" width="80" height="43" fill="#C4C4C4" stroke="black"/>
<g>
<mask id="path-53-inside-8" fill="white">
<path d="M229 1545H423V1678H229V1545Z"/>
</mask>
<path  id="2423" d="M229 1545H423V1678H229V1545Z" fill="#C4C4C4"/>
<path d="M229 1545V1544H228V1545H229ZM423 1545H424V1544H423V1545ZM423 1678V1679H424V1678H423ZM229 1678H228V1679H229V1678ZM229 1546H423V1544H229V1546ZM422 1545V1678H424V1545H422ZM423 1677H229V1679H423V1677ZM230 1678V1545H228V1678H230Z" fill="black" mask="url(#path-53-inside-8)"/>
</g>
<g id="Union_3">
<mask id="path-55-inside-9" fill="white">
<path fill-rule="evenodd" clip-rule="evenodd" d="M370 2141H343V2152H229V2178H343H370V2152V2141Z"/>
</mask>
<path fill-rule="evenodd" clip-rule="evenodd" d="M370 2141H343V2152H229V2178H343H370V2152V2141Z" fill="#C4C4C4"/>
<path d="M343 2141V2140H342V2141H343ZM370 2141H371V2140H370V2141ZM343 2152V2153H344V2152H343ZM229 2152V2151H228V2152H229ZM229 2178H228V2179H229V2178ZM370 2178V2179H371V2178H370ZM343 2142H370V2140H343V2142ZM344 2152V2141H342V2152H344ZM229 2153H343V2151H229V2153ZM230 2178V2152H228V2178H230ZM343 2177H229V2179H343V2177ZM370 2177H343V2179H370V2177ZM369 2152V2178H371V2152H369ZM369 2141V2152H371V2141H369Z" fill="black" mask="url(#path-55-inside-9)"/>
</g>
<rect id="2109" x="185.5" y="2060.5" width="237" height="81" fill="#C4C4C4" stroke="black"/>
<rect id="Rectangle 171" x="229.5" y="2006.5" width="31" height="54" fill="#C4C4C4" stroke="black"/>
<rect id="Rectangle 172" x="260.5" y="2006.5" width="30" height="54" fill="#C4C4C4" stroke="black"/>
<rect id="Rectangle 173" x="290.5" y="2017.5" width="17" height="43" fill="#C4C4C4" stroke="black"/>
<rect id="Rectangle 174" x="307.5" y="2017.5" width="18" height="43" fill="#C4C4C4" stroke="black"/>
<rect id="Rectangle 176" x="325.5" y="1871.5" width="97" height="189" fill="#C4C4C4" stroke="black"/>
<g id="Union_4">
<mask id="path-63-inside-10" fill="white">
<path fill-rule="evenodd" clip-rule="evenodd" d="M290 1973H229V2007H290V2018H326V2007V1973H290Z"/>
</mask>
<path fill-rule="evenodd" clip-rule="evenodd" d="M290 1973H229V2007H290V2018H326V2007V1973H290Z" fill="#EDDEB7"/>
<path d="M229 1973V1972H228V1973H229ZM229 2007H228V2008H229V2007ZM290 2007H291V2006H290V2007ZM290 2018H289V2019H290V2018ZM326 2018V2019H327V2018H326ZM326 1973H327V1972H326V1973ZM229 1974H290V1972H229V1974ZM230 2007V1973H228V2007H230ZM290 2006H229V2008H290V2006ZM291 2018V2007H289V2018H291ZM326 2017H290V2019H326V2017ZM325 2007V2018H327V2007H325ZM325 1973V2007H327V1973H325ZM290 1974H326V1972H290V1974Z" fill="black" mask="url(#path-63-inside-10)"/>
</g>
<rect id="Rectangle 178" x="229.5" y="1931.5" width="13" height="42" fill="#C4C4C4" stroke="black"/>
<rect id="Rectangle 179" x="242.5" y="1931.5" width="83" height="42" fill="#C4C4C4" stroke="black"/>
<rect id="Rectangle 180" x="229.5" y="1871.5" width="96" height="60" fill="#C4C4C4" stroke="black"/>
<rect id="Rectangle 182" x="131.5" y="1940.5" width="32" height="99" fill="#C4C4C4" stroke="black"/>
<path id="Union_5" fill-rule="evenodd" clip-rule="evenodd" d="M132 60L422 60L422 1874V1875V2141V2142L422 2412H132L132 60ZM423 2142L423 2412V2413H422H132H131V2412L131 60V59H132L422 59H423V60L423 1874H612H613V1875V2141V2142H612H423ZM423 1875V2141H612V1875H423Z" fill="black"/>
<rect id="Rectangle 189" x="422.5" y="436.5" width="209" height="51" stroke="black"/>
<g id="Union_6">
<mask id="path-71-inside-11" fill="white">
<path fill-rule="evenodd" clip-rule="evenodd" d="M272 487H131V544.698H181V643V677H131V756V757L131 834V850V855H163V953H131V994H163L163 1919H131V1942H163V2039H131V2085H186V2061H230L230 1919L230 994V953L230 855V850V842V834V824H251V787H230V757V756V735H256V643H230V544.698H272V487Z"/>
</mask>
<path fill-rule="evenodd" clip-rule="evenodd" d="M272 487H131V544.698H181V643V677H131V756V757L131 834V850V855H163V953H131V994H163L163 1919H131V1942H163V2039H131V2085H186V2061H230L230 1919L230 994V953L230 855V850V842V834V824H251V787H230V757V756V735H256V643H230V544.698H272V487Z" fill="#EDDEB7"/>
<path d="M131 487V486H130V487H131ZM272 487H273V486H272V487ZM131 544.698H130V545.698H131V544.698ZM181 544.698H182V543.698H181V544.698ZM181 677V678H182V677H181ZM131 677V676H130V677H131ZM131 855H130V856H131V855ZM163 855H164V854H163V855ZM163 953V954H164V953H163ZM131 953V952H130V953H131ZM131 994H130V995H131V994ZM163 994H164V993H163V994ZM163 1919V1920H164V1919H163ZM131 1919V1918H130V1919H131ZM131 1942H130V1943H131V1942ZM163 1942H164V1941H163V1942ZM163 2039V2040H164V2039H163ZM131 2039V2038H130V2039H131ZM131 2085H130V2086H131V2085ZM186 2085V2086H187V2085H186ZM186 2061V2060H185V2061H186ZM230 2061V2062H231V2061H230ZM230 824V823H229V824H230ZM251 824V825H252V824H251ZM251 787H252V786H251V787ZM230 787H229V788H230V787ZM230 735V734H229V735H230ZM256 735V736H257V735H256ZM256 643H257V642H256V643ZM230 643H229V644H230V643ZM230 544.698V543.698H229V544.698H230ZM272 544.698V545.698H273V544.698H272ZM131 488H272V486H131V488ZM132 544.698V487H130V544.698H132ZM181 543.698H131V545.698H181V543.698ZM182 643V544.698H180V643H182ZM182 677V643H180V677H182ZM131 678H181V676H131V678ZM132 756V677H130V756H132ZM132 757V756H130V757H132ZM132 834L132 757H130L130 834H132ZM132 850V834H130V850H132ZM132 855V850H130V855H132ZM163 854H131V856H163V854ZM164 953V855H162V953H164ZM131 954H163V952H131V954ZM132 994V953H130V994H132ZM163 993H131V995H163V993ZM164 1919L164 994H162L162 1919H164ZM131 1920H163V1918H131V1920ZM132 1942V1919H130V1942H132ZM163 1941H131V1943H163V1941ZM164 2039V1942H162V2039H164ZM131 2040H163V2038H131V2040ZM132 2085V2039H130V2085H132ZM186 2084H131V2086H186V2084ZM185 2061V2085H187V2061H185ZM230 2060H186V2062H230V2060ZM229 1919L229 2061H231L231 1919H229ZM229 994L229 1919H231L231 994H229ZM229 953V994H231V953H229ZM229 855L229 953H231L231 855H229ZM229 850V855H231V850H229ZM229 842V850H231V842H229ZM229 834V842H231V834H229ZM229 824V834H231V824H229ZM251 823H230V825H251V823ZM250 787V824H252V787H250ZM230 788H251V786H230V788ZM229 757V787H231V757H229ZM229 756V757H231V756H229ZM229 735V756H231V735H229ZM256 734H230V736H256V734ZM255 643V735H257V643H255ZM230 644H256V642H230V644ZM229 544.698V643H231V544.698H229ZM272 543.698H230V545.698H272V543.698ZM271 487V544.698H273V487H271Z" fill="black" mask="url(#path-71-inside-11)"/>
</g>
<rect id="Rectangle 191" x="229.5" y="1013.5" width="54" height="40" fill="#EDDEB7" stroke="black"/>
<rect id="Rectangle 192" x="229.5" y="1506.5" width="193" height="39" fill="#EDDEB7" stroke="black"/>
<g id="Group 1">
<line id="Line 1" x1="422.854" y1="1691.52" x2="609.854" y2="1634.52" stroke="black"/>
<line id="Line 2" x1="423" y1="1344.5" x2="521" y2="1344.5" stroke="black"/>
<line id="Line 3" x1="520.478" y1="1343.85" x2="609.478" y2="1634.85" stroke="black"/>
</g>
</g>
<path id="Prolog" d="M363.615 346.16V349.5H362.49V340.969H365.637C366.57 340.969 367.301 341.207 367.828 341.684C368.359 342.16 368.625 342.791 368.625 343.576C368.625 344.404 368.365 345.043 367.846 345.492C367.33 345.938 366.59 346.16 365.625 346.16H363.615ZM363.615 345.24H365.637C366.238 345.24 366.699 345.1 367.02 344.818C367.34 344.533 367.5 344.123 367.5 343.588C367.5 343.08 367.34 342.674 367.02 342.369C366.699 342.064 366.26 341.906 365.701 341.895H363.615V345.24ZM372.955 344.133C372.791 344.105 372.613 344.092 372.422 344.092C371.711 344.092 371.229 344.395 370.975 345V349.5H369.891V343.16H370.945L370.963 343.893C371.318 343.326 371.822 343.043 372.475 343.043C372.686 343.043 372.846 343.07 372.955 343.125V344.133ZM373.553 346.271C373.553 345.65 373.674 345.092 373.916 344.596C374.162 344.1 374.502 343.717 374.936 343.447C375.373 343.178 375.871 343.043 376.43 343.043C377.293 343.043 377.99 343.342 378.521 343.939C379.057 344.537 379.324 345.332 379.324 346.324V346.4C379.324 347.018 379.205 347.572 378.967 348.064C378.732 348.553 378.395 348.934 377.953 349.207C377.516 349.48 377.012 349.617 376.441 349.617C375.582 349.617 374.885 349.318 374.35 348.721C373.818 348.123 373.553 347.332 373.553 346.348V346.271ZM374.643 346.4C374.643 347.104 374.805 347.668 375.129 348.094C375.457 348.52 375.895 348.732 376.441 348.732C376.992 348.732 377.43 348.518 377.754 348.088C378.078 347.654 378.24 347.049 378.24 346.271C378.24 345.576 378.074 345.014 377.742 344.584C377.414 344.15 376.977 343.934 376.43 343.934C375.895 343.934 375.463 344.146 375.135 344.572C374.807 344.998 374.643 345.607 374.643 346.4ZM381.861 349.5H380.777V340.5H381.861V349.5ZM383.314 346.271C383.314 345.65 383.436 345.092 383.678 344.596C383.924 344.1 384.264 343.717 384.697 343.447C385.135 343.178 385.633 343.043 386.191 343.043C387.055 343.043 387.752 343.342 388.283 343.939C388.818 344.537 389.086 345.332 389.086 346.324V346.4C389.086 347.018 388.967 347.572 388.729 348.064C388.494 348.553 388.156 348.934 387.715 349.207C387.277 349.48 386.773 349.617 386.203 349.617C385.344 349.617 384.646 349.318 384.111 348.721C383.58 348.123 383.314 347.332 383.314 346.348V346.271ZM384.404 346.4C384.404 347.104 384.566 347.668 384.891 348.094C385.219 348.52 385.656 348.732 386.203 348.732C386.754 348.732 387.191 348.518 387.516 348.088C387.84 347.654 388.002 347.049 388.002 346.271C388.002 345.576 387.836 345.014 387.504 344.584C387.176 344.15 386.738 343.934 386.191 343.934C385.656 343.934 385.225 344.146 384.896 344.572C384.568 344.998 384.404 345.607 384.404 346.4ZM390.188 346.277C390.188 345.289 390.416 344.504 390.873 343.922C391.33 343.336 391.936 343.043 392.689 343.043C393.463 343.043 394.066 343.316 394.5 343.863L394.553 343.16H395.543V349.348C395.543 350.168 395.299 350.814 394.811 351.287C394.326 351.76 393.674 351.996 392.854 351.996C392.396 351.996 391.949 351.898 391.512 351.703C391.074 351.508 390.74 351.24 390.51 350.9L391.072 350.25C391.537 350.824 392.105 351.111 392.777 351.111C393.305 351.111 393.715 350.963 394.008 350.666C394.305 350.369 394.453 349.951 394.453 349.412V348.867C394.02 349.367 393.428 349.617 392.678 349.617C391.936 349.617 391.334 349.318 390.873 348.721C390.416 348.123 390.188 347.309 390.188 346.277ZM391.277 346.4C391.277 347.115 391.424 347.678 391.717 348.088C392.01 348.494 392.42 348.697 392.947 348.697C393.631 348.697 394.133 348.387 394.453 347.766V344.871C394.121 344.266 393.623 343.963 392.959 343.963C392.432 343.963 392.02 344.168 391.723 344.578C391.426 344.988 391.277 345.596 391.277 346.4Z" fill="black"/>
<path id="Postscript" d="M353.615 541.16V544.5H352.49V535.969H355.637C356.57 535.969 357.301 536.207 357.828 536.684C358.359 537.16 358.625 537.791 358.625 538.576C358.625 539.404 358.365 540.043 357.846 540.492C357.33 540.938 356.59 541.16 355.625 541.16H353.615ZM353.615 540.24H355.637C356.238 540.24 356.699 540.1 357.02 539.818C357.34 539.533 357.5 539.123 357.5 538.588C357.5 538.08 357.34 537.674 357.02 537.369C356.699 537.064 356.26 536.906 355.701 536.895H353.615V540.24ZM359.521 541.271C359.521 540.65 359.643 540.092 359.885 539.596C360.131 539.1 360.471 538.717 360.904 538.447C361.342 538.178 361.84 538.043 362.398 538.043C363.262 538.043 363.959 538.342 364.49 538.939C365.025 539.537 365.293 540.332 365.293 541.324V541.4C365.293 542.018 365.174 542.572 364.936 543.064C364.701 543.553 364.363 543.934 363.922 544.207C363.484 544.48 362.98 544.617 362.41 544.617C361.551 544.617 360.854 544.318 360.318 543.721C359.787 543.123 359.521 542.332 359.521 541.348V541.271ZM360.611 541.4C360.611 542.104 360.773 542.668 361.098 543.094C361.426 543.52 361.863 543.732 362.41 543.732C362.961 543.732 363.398 543.518 363.723 543.088C364.047 542.654 364.209 542.049 364.209 541.271C364.209 540.576 364.043 540.014 363.711 539.584C363.383 539.15 362.945 538.934 362.398 538.934C361.863 538.934 361.432 539.146 361.104 539.572C360.775 539.998 360.611 540.607 360.611 541.4ZM370.344 542.818C370.344 542.525 370.232 542.299 370.01 542.139C369.791 541.975 369.406 541.834 368.855 541.717C368.309 541.6 367.873 541.459 367.549 541.295C367.229 541.131 366.99 540.936 366.834 540.709C366.682 540.482 366.605 540.213 366.605 539.9C366.605 539.381 366.824 538.941 367.262 538.582C367.703 538.223 368.266 538.043 368.949 538.043C369.668 538.043 370.25 538.229 370.695 538.6C371.145 538.971 371.369 539.445 371.369 540.023H370.279C370.279 539.727 370.152 539.471 369.898 539.256C369.648 539.041 369.332 538.934 368.949 538.934C368.555 538.934 368.246 539.02 368.023 539.191C367.801 539.363 367.689 539.588 367.689 539.865C367.689 540.127 367.793 540.324 368 540.457C368.207 540.59 368.58 540.717 369.119 540.838C369.662 540.959 370.102 541.104 370.438 541.271C370.773 541.439 371.021 541.643 371.182 541.881C371.346 542.115 371.428 542.402 371.428 542.742C371.428 543.309 371.201 543.764 370.748 544.107C370.295 544.447 369.707 544.617 368.984 544.617C368.477 544.617 368.027 544.527 367.637 544.348C367.246 544.168 366.939 543.918 366.717 543.598C366.498 543.273 366.389 542.924 366.389 542.549H367.473C367.492 542.912 367.637 543.201 367.906 543.416C368.18 543.627 368.539 543.732 368.984 543.732C369.395 543.732 369.723 543.65 369.969 543.486C370.219 543.318 370.344 543.096 370.344 542.818ZM374.311 536.625V538.16H375.494V538.998H374.311V542.93C374.311 543.184 374.363 543.375 374.469 543.504C374.574 543.629 374.754 543.691 375.008 543.691C375.133 543.691 375.305 543.668 375.523 543.621V544.5C375.238 544.578 374.961 544.617 374.691 544.617C374.207 544.617 373.842 544.471 373.596 544.178C373.35 543.885 373.227 543.469 373.227 542.93V538.998H372.072V538.16H373.227V536.625H374.311ZM380.457 542.818C380.457 542.525 380.346 542.299 380.123 542.139C379.904 541.975 379.52 541.834 378.969 541.717C378.422 541.6 377.986 541.459 377.662 541.295C377.342 541.131 377.104 540.936 376.947 540.709C376.795 540.482 376.719 540.213 376.719 539.9C376.719 539.381 376.938 538.941 377.375 538.582C377.816 538.223 378.379 538.043 379.062 538.043C379.781 538.043 380.363 538.229 380.809 538.6C381.258 538.971 381.482 539.445 381.482 540.023H380.393C380.393 539.727 380.266 539.471 380.012 539.256C379.762 539.041 379.445 538.934 379.062 538.934C378.668 538.934 378.359 539.02 378.137 539.191C377.914 539.363 377.803 539.588 377.803 539.865C377.803 540.127 377.906 540.324 378.113 540.457C378.32 540.59 378.693 540.717 379.232 540.838C379.775 540.959 380.215 541.104 380.551 541.271C380.887 541.439 381.135 541.643 381.295 541.881C381.459 542.115 381.541 542.402 381.541 542.742C381.541 543.309 381.314 543.764 380.861 544.107C380.408 544.447 379.82 544.617 379.098 544.617C378.59 544.617 378.141 544.527 377.75 544.348C377.359 544.168 377.053 543.918 376.83 543.598C376.611 543.273 376.502 542.924 376.502 542.549H377.586C377.605 542.912 377.75 543.201 378.02 543.416C378.293 543.627 378.652 543.732 379.098 543.732C379.508 543.732 379.836 543.65 380.082 543.486C380.332 543.318 380.457 543.096 380.457 542.818ZM385.496 543.732C385.883 543.732 386.221 543.615 386.51 543.381C386.799 543.146 386.959 542.854 386.99 542.502H388.016C387.996 542.865 387.871 543.211 387.641 543.539C387.41 543.867 387.102 544.129 386.715 544.324C386.332 544.52 385.926 544.617 385.496 544.617C384.633 544.617 383.945 544.33 383.434 543.756C382.926 543.178 382.672 542.389 382.672 541.389V541.207C382.672 540.59 382.785 540.041 383.012 539.561C383.238 539.08 383.562 538.707 383.984 538.441C384.41 538.176 384.912 538.043 385.49 538.043C386.201 538.043 386.791 538.256 387.26 538.682C387.732 539.107 387.984 539.66 388.016 540.34H386.99C386.959 539.93 386.803 539.594 386.521 539.332C386.244 539.066 385.9 538.934 385.49 538.934C384.939 538.934 384.512 539.133 384.207 539.531C383.906 539.926 383.756 540.498 383.756 541.248V541.453C383.756 542.184 383.906 542.746 384.207 543.141C384.508 543.535 384.938 543.732 385.496 543.732ZM392.299 539.133C392.135 539.105 391.957 539.092 391.766 539.092C391.055 539.092 390.572 539.395 390.318 540V544.5H389.234V538.16H390.289L390.307 538.893C390.662 538.326 391.166 538.043 391.818 538.043C392.029 538.043 392.189 538.07 392.299 538.125V539.133ZM394.479 544.5H393.395V538.16H394.479V544.5ZM393.307 536.479C393.307 536.303 393.359 536.154 393.465 536.033C393.574 535.912 393.734 535.852 393.945 535.852C394.156 535.852 394.316 535.912 394.426 536.033C394.535 536.154 394.59 536.303 394.59 536.479C394.59 536.654 394.535 536.801 394.426 536.918C394.316 537.035 394.156 537.094 393.945 537.094C393.734 537.094 393.574 537.035 393.465 536.918C393.359 536.801 393.307 536.654 393.307 536.479ZM401.574 541.4C401.574 542.365 401.354 543.143 400.912 543.732C400.471 544.322 399.873 544.617 399.119 544.617C398.35 544.617 397.744 544.373 397.303 543.885V546.938H396.219V538.16H397.209L397.262 538.863C397.703 538.316 398.316 538.043 399.102 538.043C399.863 538.043 400.465 538.33 400.906 538.904C401.352 539.479 401.574 540.277 401.574 541.301V541.4ZM400.49 541.277C400.49 540.562 400.338 539.998 400.033 539.584C399.729 539.17 399.311 538.963 398.779 538.963C398.123 538.963 397.631 539.254 397.303 539.836V542.865C397.627 543.443 398.123 543.732 398.791 543.732C399.311 543.732 399.723 543.527 400.027 543.117C400.336 542.703 400.49 542.09 400.49 541.277ZM404.428 536.625V538.16H405.611V538.998H404.428V542.93C404.428 543.184 404.48 543.375 404.586 543.504C404.691 543.629 404.871 543.691 405.125 543.691C405.25 543.691 405.422 543.668 405.641 543.621V544.5C405.355 544.578 405.078 544.617 404.809 544.617C404.324 544.617 403.959 544.471 403.713 544.178C403.467 543.885 403.344 543.469 403.344 542.93V538.998H402.189V538.16H403.344V536.625H404.428Z" fill="black"/>
<path id="Perl" d="M370.615 643.16V646.5H369.49V637.969H372.637C373.57 637.969 374.301 638.207 374.828 638.684C375.359 639.16 375.625 639.791 375.625 640.576C375.625 641.404 375.365 642.043 374.846 642.492C374.33 642.938 373.59 643.16 372.625 643.16H370.615ZM370.615 642.24H372.637C373.238 642.24 373.699 642.1 374.02 641.818C374.34 641.533 374.5 641.123 374.5 640.588C374.5 640.08 374.34 639.674 374.02 639.369C373.699 639.064 373.26 638.906 372.701 638.895H370.615V642.24ZM379.439 646.617C378.58 646.617 377.881 646.336 377.342 645.773C376.803 645.207 376.533 644.451 376.533 643.506V643.307C376.533 642.678 376.652 642.117 376.891 641.625C377.133 641.129 377.469 640.742 377.898 640.465C378.332 640.184 378.801 640.043 379.305 640.043C380.129 640.043 380.77 640.314 381.227 640.857C381.684 641.4 381.912 642.178 381.912 643.189V643.641H377.617C377.633 644.266 377.814 644.771 378.162 645.158C378.514 645.541 378.959 645.732 379.498 645.732C379.881 645.732 380.205 645.654 380.471 645.498C380.736 645.342 380.969 645.135 381.168 644.877L381.83 645.393C381.299 646.209 380.502 646.617 379.439 646.617ZM379.305 640.934C378.867 640.934 378.5 641.094 378.203 641.414C377.906 641.73 377.723 642.176 377.652 642.75H380.828V642.668C380.797 642.117 380.648 641.691 380.383 641.391C380.117 641.086 379.758 640.934 379.305 640.934ZM386.236 641.133C386.072 641.105 385.895 641.092 385.703 641.092C384.992 641.092 384.51 641.395 384.256 642V646.5H383.172V640.16H384.227L384.244 640.893C384.6 640.326 385.104 640.043 385.756 640.043C385.967 640.043 386.127 640.07 386.236 640.125V641.133ZM388.416 646.5H387.332V637.5H388.416V646.5Z" fill="black"/>
<path id="Pascal" d="M363.115 757.66V761H361.99V752.469H365.137C366.07 752.469 366.801 752.707 367.328 753.184C367.859 753.66 368.125 754.291 368.125 755.076C368.125 755.904 367.865 756.543 367.346 756.992C366.83 757.438 366.09 757.66 365.125 757.66H363.115ZM363.115 756.74H365.137C365.738 756.74 366.199 756.6 366.52 756.318C366.84 756.033 367 755.623 367 755.088C367 754.58 366.84 754.174 366.52 753.869C366.199 753.564 365.76 753.406 365.201 753.395H363.115V756.74ZM373.234 761C373.172 760.875 373.121 760.652 373.082 760.332C372.578 760.855 371.977 761.117 371.277 761.117C370.652 761.117 370.139 760.941 369.736 760.59C369.338 760.234 369.139 759.785 369.139 759.242C369.139 758.582 369.389 758.07 369.889 757.707C370.393 757.34 371.1 757.156 372.01 757.156H373.064V756.658C373.064 756.279 372.951 755.979 372.725 755.756C372.498 755.529 372.164 755.416 371.723 755.416C371.336 755.416 371.012 755.514 370.75 755.709C370.488 755.904 370.357 756.141 370.357 756.418H369.268C369.268 756.102 369.379 755.797 369.602 755.504C369.828 755.207 370.133 754.973 370.516 754.801C370.902 754.629 371.326 754.543 371.787 754.543C372.518 754.543 373.09 754.727 373.504 755.094C373.918 755.457 374.133 755.959 374.148 756.6V759.518C374.148 760.1 374.223 760.562 374.371 760.906V761H373.234ZM371.436 760.174C371.775 760.174 372.098 760.086 372.402 759.91C372.707 759.734 372.928 759.506 373.064 759.225V757.924H372.215C370.887 757.924 370.223 758.312 370.223 759.09C370.223 759.43 370.336 759.695 370.562 759.887C370.789 760.078 371.08 760.174 371.436 760.174ZM379.539 759.318C379.539 759.025 379.428 758.799 379.205 758.639C378.986 758.475 378.602 758.334 378.051 758.217C377.504 758.1 377.068 757.959 376.744 757.795C376.424 757.631 376.186 757.436 376.029 757.209C375.877 756.982 375.801 756.713 375.801 756.4C375.801 755.881 376.02 755.441 376.457 755.082C376.898 754.723 377.461 754.543 378.145 754.543C378.863 754.543 379.445 754.729 379.891 755.1C380.34 755.471 380.564 755.945 380.564 756.523H379.475C379.475 756.227 379.348 755.971 379.094 755.756C378.844 755.541 378.527 755.434 378.145 755.434C377.75 755.434 377.441 755.52 377.219 755.691C376.996 755.863 376.885 756.088 376.885 756.365C376.885 756.627 376.988 756.824 377.195 756.957C377.402 757.09 377.775 757.217 378.314 757.338C378.857 757.459 379.297 757.604 379.633 757.771C379.969 757.939 380.217 758.143 380.377 758.381C380.541 758.615 380.623 758.902 380.623 759.242C380.623 759.809 380.396 760.264 379.943 760.607C379.49 760.947 378.902 761.117 378.18 761.117C377.672 761.117 377.223 761.027 376.832 760.848C376.441 760.668 376.135 760.418 375.912 760.098C375.693 759.773 375.584 759.424 375.584 759.049H376.668C376.688 759.412 376.832 759.701 377.102 759.916C377.375 760.127 377.734 760.232 378.18 760.232C378.59 760.232 378.918 760.15 379.164 759.986C379.414 759.818 379.539 759.596 379.539 759.318ZM384.578 760.232C384.965 760.232 385.303 760.115 385.592 759.881C385.881 759.646 386.041 759.354 386.072 759.002H387.098C387.078 759.365 386.953 759.711 386.723 760.039C386.492 760.367 386.184 760.629 385.797 760.824C385.414 761.02 385.008 761.117 384.578 761.117C383.715 761.117 383.027 760.83 382.516 760.256C382.008 759.678 381.754 758.889 381.754 757.889V757.707C381.754 757.09 381.867 756.541 382.094 756.061C382.32 755.58 382.645 755.207 383.066 754.941C383.492 754.676 383.994 754.543 384.572 754.543C385.283 754.543 385.873 754.756 386.342 755.182C386.814 755.607 387.066 756.16 387.098 756.84H386.072C386.041 756.43 385.885 756.094 385.604 755.832C385.326 755.566 384.982 755.434 384.572 755.434C384.021 755.434 383.594 755.633 383.289 756.031C382.988 756.426 382.838 756.998 382.838 757.748V757.953C382.838 758.684 382.988 759.246 383.289 759.641C383.59 760.035 384.02 760.232 384.578 760.232ZM392.23 761C392.168 760.875 392.117 760.652 392.078 760.332C391.574 760.855 390.973 761.117 390.273 761.117C389.648 761.117 389.135 760.941 388.732 760.59C388.334 760.234 388.135 759.785 388.135 759.242C388.135 758.582 388.385 758.07 388.885 757.707C389.389 757.34 390.096 757.156 391.006 757.156H392.061V756.658C392.061 756.279 391.947 755.979 391.721 755.756C391.494 755.529 391.16 755.416 390.719 755.416C390.332 755.416 390.008 755.514 389.746 755.709C389.484 755.904 389.354 756.141 389.354 756.418H388.264C388.264 756.102 388.375 755.797 388.598 755.504C388.824 755.207 389.129 754.973 389.512 754.801C389.898 754.629 390.322 754.543 390.783 754.543C391.514 754.543 392.086 754.727 392.5 755.094C392.914 755.457 393.129 755.959 393.145 756.6V759.518C393.145 760.1 393.219 760.562 393.367 760.906V761H392.23ZM390.432 760.174C390.771 760.174 391.094 760.086 391.398 759.91C391.703 759.734 391.924 759.506 392.061 759.225V757.924H391.211C389.883 757.924 389.219 758.312 389.219 759.09C389.219 759.43 389.332 759.695 389.559 759.887C389.785 760.078 390.076 760.174 390.432 760.174ZM396.021 761H394.938V752H396.021V761Z" fill="black"/>
<path id="Modula" d="M360.943 913.969L363.732 920.93L366.521 913.969H367.98V922.5H366.855V919.178L366.961 915.592L364.16 922.5H363.299L360.504 915.609L360.615 919.178V922.5H359.49V913.969H360.943ZM369.51 919.271C369.51 918.65 369.631 918.092 369.873 917.596C370.119 917.1 370.459 916.717 370.893 916.447C371.33 916.178 371.828 916.043 372.387 916.043C373.25 916.043 373.947 916.342 374.479 916.939C375.014 917.537 375.281 918.332 375.281 919.324V919.4C375.281 920.018 375.162 920.572 374.924 921.064C374.689 921.553 374.352 921.934 373.91 922.207C373.473 922.48 372.969 922.617 372.398 922.617C371.539 922.617 370.842 922.318 370.307 921.721C369.775 921.123 369.51 920.332 369.51 919.348V919.271ZM370.6 919.4C370.6 920.104 370.762 920.668 371.086 921.094C371.414 921.52 371.852 921.732 372.398 921.732C372.949 921.732 373.387 921.518 373.711 921.088C374.035 920.654 374.197 920.049 374.197 919.271C374.197 918.576 374.031 918.014 373.699 917.584C373.371 917.15 372.934 916.934 372.387 916.934C371.852 916.934 371.42 917.146 371.092 917.572C370.764 917.998 370.6 918.607 370.6 919.4ZM376.377 919.277C376.377 918.305 376.607 917.523 377.068 916.934C377.529 916.34 378.133 916.043 378.879 916.043C379.621 916.043 380.209 916.297 380.643 916.805V913.5H381.727V922.5H380.73L380.678 921.82C380.244 922.352 379.641 922.617 378.867 922.617C378.133 922.617 377.533 922.316 377.068 921.715C376.607 921.113 376.377 920.328 376.377 919.359V919.277ZM377.461 919.4C377.461 920.119 377.609 920.682 377.906 921.088C378.203 921.494 378.613 921.697 379.137 921.697C379.824 921.697 380.326 921.389 380.643 920.771V917.859C380.318 917.262 379.82 916.963 379.148 916.963C378.617 916.963 378.203 917.168 377.906 917.578C377.609 917.988 377.461 918.596 377.461 919.4ZM387.328 921.873C386.906 922.369 386.287 922.617 385.471 922.617C384.795 922.617 384.279 922.422 383.924 922.031C383.572 921.637 383.395 921.055 383.391 920.285V916.16H384.475V920.256C384.475 921.217 384.865 921.697 385.646 921.697C386.475 921.697 387.025 921.389 387.299 920.771V916.16H388.383V922.5H387.352L387.328 921.873ZM391.213 922.5H390.129V913.5H391.213V922.5ZM396.867 922.5C396.805 922.375 396.754 922.152 396.715 921.832C396.211 922.355 395.609 922.617 394.91 922.617C394.285 922.617 393.771 922.441 393.369 922.09C392.971 921.734 392.771 921.285 392.771 920.742C392.771 920.082 393.021 919.57 393.521 919.207C394.025 918.84 394.732 918.656 395.643 918.656H396.697V918.158C396.697 917.779 396.584 917.479 396.357 917.256C396.131 917.029 395.797 916.916 395.355 916.916C394.969 916.916 394.645 917.014 394.383 917.209C394.121 917.404 393.99 917.641 393.99 917.918H392.9C392.9 917.602 393.012 917.297 393.234 917.004C393.461 916.707 393.766 916.473 394.148 916.301C394.535 916.129 394.959 916.043 395.42 916.043C396.15 916.043 396.723 916.227 397.137 916.594C397.551 916.957 397.766 917.459 397.781 918.1V921.018C397.781 921.6 397.855 922.062 398.004 922.406V922.5H396.867ZM395.068 921.674C395.408 921.674 395.73 921.586 396.035 921.41C396.34 921.234 396.561 921.006 396.697 920.725V919.424H395.848C394.52 919.424 393.855 919.812 393.855 920.59C393.855 920.93 393.969 921.195 394.195 921.387C394.422 921.578 394.713 921.674 395.068 921.674Z" fill="black"/>
<path id="Logo" d="M367.621 1095.58H371.664V1096.5H366.49V1087.97H367.621V1095.58ZM372.49 1093.27C372.49 1092.65 372.611 1092.09 372.854 1091.6C373.1 1091.1 373.439 1090.72 373.873 1090.45C374.311 1090.18 374.809 1090.04 375.367 1090.04C376.23 1090.04 376.928 1090.34 377.459 1090.94C377.994 1091.54 378.262 1092.33 378.262 1093.32V1093.4C378.262 1094.02 378.143 1094.57 377.904 1095.06C377.67 1095.55 377.332 1095.93 376.891 1096.21C376.453 1096.48 375.949 1096.62 375.379 1096.62C374.52 1096.62 373.822 1096.32 373.287 1095.72C372.756 1095.12 372.49 1094.33 372.49 1093.35V1093.27ZM373.58 1093.4C373.58 1094.1 373.742 1094.67 374.066 1095.09C374.395 1095.52 374.832 1095.73 375.379 1095.73C375.93 1095.73 376.367 1095.52 376.691 1095.09C377.016 1094.65 377.178 1094.05 377.178 1093.27C377.178 1092.58 377.012 1092.01 376.68 1091.58C376.352 1091.15 375.914 1090.93 375.367 1090.93C374.832 1090.93 374.4 1091.15 374.072 1091.57C373.744 1092 373.58 1092.61 373.58 1093.4ZM379.363 1093.28C379.363 1092.29 379.592 1091.5 380.049 1090.92C380.506 1090.34 381.111 1090.04 381.865 1090.04C382.639 1090.04 383.242 1090.32 383.676 1090.86L383.729 1090.16H384.719V1096.35C384.719 1097.17 384.475 1097.81 383.986 1098.29C383.502 1098.76 382.85 1099 382.029 1099C381.572 1099 381.125 1098.9 380.688 1098.7C380.25 1098.51 379.916 1098.24 379.686 1097.9L380.248 1097.25C380.713 1097.82 381.281 1098.11 381.953 1098.11C382.48 1098.11 382.891 1097.96 383.184 1097.67C383.48 1097.37 383.629 1096.95 383.629 1096.41V1095.87C383.195 1096.37 382.604 1096.62 381.854 1096.62C381.111 1096.62 380.51 1096.32 380.049 1095.72C379.592 1095.12 379.363 1094.31 379.363 1093.28ZM380.453 1093.4C380.453 1094.12 380.6 1094.68 380.893 1095.09C381.186 1095.49 381.596 1095.7 382.123 1095.7C382.807 1095.7 383.309 1095.39 383.629 1094.77V1091.87C383.297 1091.27 382.799 1090.96 382.135 1090.96C381.607 1090.96 381.195 1091.17 380.898 1091.58C380.602 1091.99 380.453 1092.6 380.453 1093.4ZM386.072 1093.27C386.072 1092.65 386.193 1092.09 386.436 1091.6C386.682 1091.1 387.021 1090.72 387.455 1090.45C387.893 1090.18 388.391 1090.04 388.949 1090.04C389.812 1090.04 390.51 1090.34 391.041 1090.94C391.576 1091.54 391.844 1092.33 391.844 1093.32V1093.4C391.844 1094.02 391.725 1094.57 391.486 1095.06C391.252 1095.55 390.914 1095.93 390.473 1096.21C390.035 1096.48 389.531 1096.62 388.961 1096.62C388.102 1096.62 387.404 1096.32 386.869 1095.72C386.338 1095.12 386.072 1094.33 386.072 1093.35V1093.27ZM387.162 1093.4C387.162 1094.1 387.324 1094.67 387.648 1095.09C387.977 1095.52 388.414 1095.73 388.961 1095.73C389.512 1095.73 389.949 1095.52 390.273 1095.09C390.598 1094.65 390.76 1094.05 390.76 1093.27C390.76 1092.58 390.594 1092.01 390.262 1091.58C389.934 1091.15 389.496 1090.93 388.949 1090.93C388.414 1090.93 387.982 1091.15 387.654 1091.57C387.326 1092 387.162 1092.61 387.162 1093.4Z" fill="black"/>
<path id="Lisp" d="M369.621 1427.58H373.664V1428.5H368.49V1419.97H369.621V1427.58ZM375.955 1428.5H374.871V1422.16H375.955V1428.5ZM374.783 1420.48C374.783 1420.3 374.836 1420.15 374.941 1420.03C375.051 1419.91 375.211 1419.85 375.422 1419.85C375.633 1419.85 375.793 1419.91 375.902 1420.03C376.012 1420.15 376.066 1420.3 376.066 1420.48C376.066 1420.65 376.012 1420.8 375.902 1420.92C375.793 1421.04 375.633 1421.09 375.422 1421.09C375.211 1421.09 375.051 1421.04 374.941 1420.92C374.836 1420.8 374.783 1420.65 374.783 1420.48ZM381.387 1426.82C381.387 1426.53 381.275 1426.3 381.053 1426.14C380.834 1425.97 380.449 1425.83 379.898 1425.72C379.352 1425.6 378.916 1425.46 378.592 1425.29C378.271 1425.13 378.033 1424.94 377.877 1424.71C377.725 1424.48 377.648 1424.21 377.648 1423.9C377.648 1423.38 377.867 1422.94 378.305 1422.58C378.746 1422.22 379.309 1422.04 379.992 1422.04C380.711 1422.04 381.293 1422.23 381.738 1422.6C382.188 1422.97 382.412 1423.45 382.412 1424.02H381.322C381.322 1423.73 381.195 1423.47 380.941 1423.26C380.691 1423.04 380.375 1422.93 379.992 1422.93C379.598 1422.93 379.289 1423.02 379.066 1423.19C378.844 1423.36 378.732 1423.59 378.732 1423.87C378.732 1424.13 378.836 1424.32 379.043 1424.46C379.25 1424.59 379.623 1424.72 380.162 1424.84C380.705 1424.96 381.145 1425.1 381.48 1425.27C381.816 1425.44 382.064 1425.64 382.225 1425.88C382.389 1426.12 382.471 1426.4 382.471 1426.74C382.471 1427.31 382.244 1427.76 381.791 1428.11C381.338 1428.45 380.75 1428.62 380.027 1428.62C379.52 1428.62 379.07 1428.53 378.68 1428.35C378.289 1428.17 377.982 1427.92 377.76 1427.6C377.541 1427.27 377.432 1426.92 377.432 1426.55H378.516C378.535 1426.91 378.68 1427.2 378.949 1427.42C379.223 1427.63 379.582 1427.73 380.027 1427.73C380.438 1427.73 380.766 1427.65 381.012 1427.49C381.262 1427.32 381.387 1427.1 381.387 1426.82ZM389.238 1425.4C389.238 1426.37 389.018 1427.14 388.576 1427.73C388.135 1428.32 387.537 1428.62 386.783 1428.62C386.014 1428.62 385.408 1428.37 384.967 1427.88V1430.94H383.883V1422.16H384.873L384.926 1422.86C385.367 1422.32 385.98 1422.04 386.766 1422.04C387.527 1422.04 388.129 1422.33 388.57 1422.9C389.016 1423.48 389.238 1424.28 389.238 1425.3V1425.4ZM388.154 1425.28C388.154 1424.56 388.002 1424 387.697 1423.58C387.393 1423.17 386.975 1422.96 386.443 1422.96C385.787 1422.96 385.295 1423.25 384.967 1423.84V1426.87C385.291 1427.44 385.787 1427.73 386.455 1427.73C386.975 1427.73 387.387 1427.53 387.691 1427.12C388 1426.7 388.154 1426.09 388.154 1425.28Z" fill="black"/>
<path id="Java" d="M370.564 1608.47H371.695V1614.51C371.695 1615.33 371.449 1615.96 370.957 1616.43C370.469 1616.89 369.816 1617.12 369 1617.12C368.152 1617.12 367.492 1616.9 367.02 1616.47C366.547 1616.03 366.311 1615.43 366.311 1614.64H367.436C367.436 1615.13 367.568 1615.51 367.834 1615.79C368.104 1616.06 368.492 1616.2 369 1616.2C369.465 1616.2 369.84 1616.05 370.125 1615.76C370.414 1615.46 370.561 1615.05 370.564 1614.53V1608.47ZM377.355 1617C377.293 1616.88 377.242 1616.65 377.203 1616.33C376.699 1616.86 376.098 1617.12 375.398 1617.12C374.773 1617.12 374.26 1616.94 373.857 1616.59C373.459 1616.23 373.26 1615.79 373.26 1615.24C373.26 1614.58 373.51 1614.07 374.01 1613.71C374.514 1613.34 375.221 1613.16 376.131 1613.16H377.186V1612.66C377.186 1612.28 377.072 1611.98 376.846 1611.76C376.619 1611.53 376.285 1611.42 375.844 1611.42C375.457 1611.42 375.133 1611.51 374.871 1611.71C374.609 1611.9 374.479 1612.14 374.479 1612.42H373.389C373.389 1612.1 373.5 1611.8 373.723 1611.5C373.949 1611.21 374.254 1610.97 374.637 1610.8C375.023 1610.63 375.447 1610.54 375.908 1610.54C376.639 1610.54 377.211 1610.73 377.625 1611.09C378.039 1611.46 378.254 1611.96 378.27 1612.6V1615.52C378.27 1616.1 378.344 1616.56 378.492 1616.91V1617H377.355ZM375.557 1616.17C375.896 1616.17 376.219 1616.09 376.523 1615.91C376.828 1615.73 377.049 1615.51 377.186 1615.22V1613.92H376.336C375.008 1613.92 374.344 1614.31 374.344 1615.09C374.344 1615.43 374.457 1615.7 374.684 1615.89C374.91 1616.08 375.201 1616.17 375.557 1616.17ZM381.967 1615.53L383.537 1610.66H384.645L382.371 1617H381.545L379.248 1610.66H380.355L381.967 1615.53ZM389.508 1617C389.445 1616.88 389.395 1616.65 389.355 1616.33C388.852 1616.86 388.25 1617.12 387.551 1617.12C386.926 1617.12 386.412 1616.94 386.01 1616.59C385.611 1616.23 385.412 1615.79 385.412 1615.24C385.412 1614.58 385.662 1614.07 386.162 1613.71C386.666 1613.34 387.373 1613.16 388.283 1613.16H389.338V1612.66C389.338 1612.28 389.225 1611.98 388.998 1611.76C388.771 1611.53 388.438 1611.42 387.996 1611.42C387.609 1611.42 387.285 1611.51 387.023 1611.71C386.762 1611.9 386.631 1612.14 386.631 1612.42H385.541C385.541 1612.1 385.652 1611.8 385.875 1611.5C386.102 1611.21 386.406 1610.97 386.789 1610.8C387.176 1610.63 387.6 1610.54 388.061 1610.54C388.791 1610.54 389.363 1610.73 389.777 1611.09C390.191 1611.46 390.406 1611.96 390.422 1612.6V1615.52C390.422 1616.1 390.496 1616.56 390.645 1616.91V1617H389.508ZM387.709 1616.17C388.049 1616.17 388.371 1616.09 388.676 1615.91C388.98 1615.73 389.201 1615.51 389.338 1615.22V1613.92H388.488C387.16 1613.92 386.496 1614.31 386.496 1615.09C386.496 1615.43 386.609 1615.7 386.836 1615.89C387.062 1616.08 387.354 1616.17 387.709 1616.17Z" fill="black"/>
<path id="Mesaninen" d="M351.943 2096.97L354.732 2103.93L357.521 2096.97H358.98V2105.5H357.855V2102.18L357.961 2098.59L355.16 2105.5H354.299L351.504 2098.61L351.615 2102.18V2105.5H350.49V2096.97H351.943ZM363.428 2105.62C362.568 2105.62 361.869 2105.34 361.33 2104.77C360.791 2104.21 360.521 2103.45 360.521 2102.51V2102.31C360.521 2101.68 360.641 2101.12 360.879 2100.62C361.121 2100.13 361.457 2099.74 361.887 2099.46C362.32 2099.18 362.789 2099.04 363.293 2099.04C364.117 2099.04 364.758 2099.31 365.215 2099.86C365.672 2100.4 365.9 2101.18 365.9 2102.19V2102.64H361.605C361.621 2103.27 361.803 2103.77 362.15 2104.16C362.502 2104.54 362.947 2104.73 363.486 2104.73C363.869 2104.73 364.193 2104.65 364.459 2104.5C364.725 2104.34 364.957 2104.13 365.156 2103.88L365.818 2104.39C365.287 2105.21 364.49 2105.62 363.428 2105.62ZM363.293 2099.93C362.855 2099.93 362.488 2100.09 362.191 2100.41C361.895 2100.73 361.711 2101.18 361.641 2101.75H364.816V2101.67C364.785 2101.12 364.637 2100.69 364.371 2100.39C364.105 2100.09 363.746 2099.93 363.293 2099.93ZM370.852 2103.82C370.852 2103.53 370.74 2103.3 370.518 2103.14C370.299 2102.97 369.914 2102.83 369.363 2102.72C368.816 2102.6 368.381 2102.46 368.057 2102.29C367.736 2102.13 367.498 2101.94 367.342 2101.71C367.189 2101.48 367.113 2101.21 367.113 2100.9C367.113 2100.38 367.332 2099.94 367.77 2099.58C368.211 2099.22 368.773 2099.04 369.457 2099.04C370.176 2099.04 370.758 2099.23 371.203 2099.6C371.652 2099.97 371.877 2100.45 371.877 2101.02H370.787C370.787 2100.73 370.66 2100.47 370.406 2100.26C370.156 2100.04 369.84 2099.93 369.457 2099.93C369.062 2099.93 368.754 2100.02 368.531 2100.19C368.309 2100.36 368.197 2100.59 368.197 2100.87C368.197 2101.13 368.301 2101.32 368.508 2101.46C368.715 2101.59 369.088 2101.72 369.627 2101.84C370.17 2101.96 370.609 2102.1 370.945 2102.27C371.281 2102.44 371.529 2102.64 371.689 2102.88C371.854 2103.12 371.936 2103.4 371.936 2103.74C371.936 2104.31 371.709 2104.76 371.256 2105.11C370.803 2105.45 370.215 2105.62 369.492 2105.62C368.984 2105.62 368.535 2105.53 368.145 2105.35C367.754 2105.17 367.447 2104.92 367.225 2104.6C367.006 2104.27 366.896 2103.92 366.896 2103.55H367.98C368 2103.91 368.145 2104.2 368.414 2104.42C368.688 2104.63 369.047 2104.73 369.492 2104.73C369.902 2104.73 370.23 2104.65 370.477 2104.49C370.727 2104.32 370.852 2104.1 370.852 2103.82ZM377.262 2105.5C377.199 2105.38 377.148 2105.15 377.109 2104.83C376.605 2105.36 376.004 2105.62 375.305 2105.62C374.68 2105.62 374.166 2105.44 373.764 2105.09C373.365 2104.73 373.166 2104.29 373.166 2103.74C373.166 2103.08 373.416 2102.57 373.916 2102.21C374.42 2101.84 375.127 2101.66 376.037 2101.66H377.092V2101.16C377.092 2100.78 376.979 2100.48 376.752 2100.26C376.525 2100.03 376.191 2099.92 375.75 2099.92C375.363 2099.92 375.039 2100.01 374.777 2100.21C374.516 2100.4 374.385 2100.64 374.385 2100.92H373.295C373.295 2100.6 373.406 2100.3 373.629 2100C373.855 2099.71 374.16 2099.47 374.543 2099.3C374.93 2099.13 375.354 2099.04 375.814 2099.04C376.545 2099.04 377.117 2099.23 377.531 2099.59C377.945 2099.96 378.16 2100.46 378.176 2101.1V2104.02C378.176 2104.6 378.25 2105.06 378.398 2105.41V2105.5H377.262ZM375.463 2104.67C375.803 2104.67 376.125 2104.59 376.43 2104.41C376.734 2104.23 376.955 2104.01 377.092 2103.72V2102.42H376.242C374.914 2102.42 374.25 2102.81 374.25 2103.59C374.25 2103.93 374.363 2104.2 374.59 2104.39C374.816 2104.58 375.107 2104.67 375.463 2104.67ZM380.9 2099.16L380.936 2099.96C381.42 2099.35 382.053 2099.04 382.834 2099.04C384.174 2099.04 384.85 2099.8 384.861 2101.31V2105.5H383.777V2101.3C383.773 2100.85 383.668 2100.51 383.461 2100.29C383.258 2100.07 382.939 2099.96 382.506 2099.96C382.154 2099.96 381.846 2100.06 381.58 2100.24C381.314 2100.43 381.107 2100.68 380.959 2100.98V2105.5H379.875V2099.16H380.9ZM387.674 2105.5H386.59V2099.16H387.674V2105.5ZM386.502 2097.48C386.502 2097.3 386.555 2097.15 386.66 2097.03C386.77 2096.91 386.93 2096.85 387.141 2096.85C387.352 2096.85 387.512 2096.91 387.621 2097.03C387.73 2097.15 387.785 2097.3 387.785 2097.48C387.785 2097.65 387.73 2097.8 387.621 2097.92C387.512 2098.04 387.352 2098.09 387.141 2098.09C386.93 2098.09 386.77 2098.04 386.66 2097.92C386.555 2097.8 386.502 2097.65 386.502 2097.48ZM390.439 2099.16L390.475 2099.96C390.959 2099.35 391.592 2099.04 392.373 2099.04C393.713 2099.04 394.389 2099.8 394.4 2101.31V2105.5H393.316V2101.3C393.312 2100.85 393.207 2100.51 393 2100.29C392.797 2100.07 392.479 2099.96 392.045 2099.96C391.693 2099.96 391.385 2100.06 391.119 2100.24C390.854 2100.43 390.646 2100.68 390.498 2100.98V2105.5H389.414V2099.16H390.439ZM398.666 2105.62C397.807 2105.62 397.107 2105.34 396.568 2104.77C396.029 2104.21 395.76 2103.45 395.76 2102.51V2102.31C395.76 2101.68 395.879 2101.12 396.117 2100.62C396.359 2100.13 396.695 2099.74 397.125 2099.46C397.559 2099.18 398.027 2099.04 398.531 2099.04C399.355 2099.04 399.996 2099.31 400.453 2099.86C400.91 2100.4 401.139 2101.18 401.139 2102.19V2102.64H396.844C396.859 2103.27 397.041 2103.77 397.389 2104.16C397.74 2104.54 398.186 2104.73 398.725 2104.73C399.107 2104.73 399.432 2104.65 399.697 2104.5C399.963 2104.34 400.195 2104.13 400.395 2103.88L401.057 2104.39C400.525 2105.21 399.729 2105.62 398.666 2105.62ZM398.531 2099.93C398.094 2099.93 397.727 2100.09 397.43 2100.41C397.133 2100.73 396.949 2101.18 396.879 2101.75H400.055V2101.67C400.023 2101.12 399.875 2100.69 399.609 2100.39C399.344 2100.09 398.984 2099.93 398.531 2099.93ZM403.424 2099.16L403.459 2099.96C403.943 2099.35 404.576 2099.04 405.357 2099.04C406.697 2099.04 407.373 2099.8 407.385 2101.31V2105.5H406.301V2101.3C406.297 2100.85 406.191 2100.51 405.984 2100.29C405.781 2100.07 405.463 2099.96 405.029 2099.96C404.678 2099.96 404.369 2100.06 404.104 2100.24C403.838 2100.43 403.631 2100.68 403.482 2100.98V2105.5H402.398V2099.16H403.424Z" fill="black"/>
<path id="Eta" d="M171.375 202.871H168.91V204.887H171.773V205.5H168.16V199.812H171.734V200.43H168.91V202.258H171.375V202.871ZM173.574 200.25V201.273H174.363V201.832H173.574V204.453C173.574 204.622 173.609 204.75 173.68 204.836C173.75 204.919 173.87 204.961 174.039 204.961C174.122 204.961 174.237 204.945 174.383 204.914V205.5C174.193 205.552 174.008 205.578 173.828 205.578C173.505 205.578 173.262 205.48 173.098 205.285C172.934 205.09 172.852 204.812 172.852 204.453V201.832H172.082V201.273H172.852V200.25H173.574ZM177.82 205.5C177.779 205.417 177.745 205.268 177.719 205.055C177.383 205.404 176.982 205.578 176.516 205.578C176.099 205.578 175.757 205.461 175.488 205.227C175.223 204.99 175.09 204.69 175.09 204.328C175.09 203.888 175.257 203.547 175.59 203.305C175.926 203.06 176.397 202.938 177.004 202.938H177.707V202.605C177.707 202.353 177.632 202.152 177.48 202.004C177.329 201.853 177.107 201.777 176.812 201.777C176.555 201.777 176.339 201.842 176.164 201.973C175.99 202.103 175.902 202.26 175.902 202.445H175.176C175.176 202.234 175.25 202.031 175.398 201.836C175.549 201.638 175.753 201.482 176.008 201.367C176.266 201.253 176.548 201.195 176.855 201.195C177.342 201.195 177.724 201.318 178 201.562C178.276 201.805 178.419 202.139 178.43 202.566V204.512C178.43 204.9 178.479 205.208 178.578 205.438V205.5H177.82ZM176.621 204.949C176.848 204.949 177.062 204.891 177.266 204.773C177.469 204.656 177.616 204.504 177.707 204.316V203.449H177.141C176.255 203.449 175.812 203.708 175.812 204.227C175.812 204.453 175.888 204.63 176.039 204.758C176.19 204.885 176.384 204.949 176.621 204.949Z" fill="black"/>
<path id="Epsilon" d="M163.875 276.371H161.41V278.387H164.273V279H160.66V273.312H164.234V273.93H161.41V275.758H163.875V276.371ZM168.664 276.934C168.664 277.577 168.517 278.095 168.223 278.488C167.928 278.882 167.53 279.078 167.027 279.078C166.514 279.078 166.111 278.915 165.816 278.59V280.625H165.094V274.773H165.754L165.789 275.242C166.083 274.878 166.492 274.695 167.016 274.695C167.523 274.695 167.924 274.887 168.219 275.27C168.516 275.652 168.664 276.185 168.664 276.867V276.934ZM167.941 276.852C167.941 276.375 167.84 275.999 167.637 275.723C167.434 275.447 167.155 275.309 166.801 275.309C166.363 275.309 166.035 275.503 165.816 275.891V277.91C166.033 278.296 166.363 278.488 166.809 278.488C167.155 278.488 167.43 278.352 167.633 278.078C167.839 277.802 167.941 277.393 167.941 276.852ZM172.047 277.879C172.047 277.684 171.973 277.533 171.824 277.426C171.678 277.316 171.422 277.223 171.055 277.145C170.69 277.066 170.4 276.973 170.184 276.863C169.97 276.754 169.811 276.624 169.707 276.473C169.605 276.322 169.555 276.142 169.555 275.934C169.555 275.587 169.701 275.294 169.992 275.055C170.286 274.815 170.661 274.695 171.117 274.695C171.596 274.695 171.984 274.819 172.281 275.066C172.581 275.314 172.73 275.63 172.73 276.016H172.004C172.004 275.818 171.919 275.647 171.75 275.504C171.583 275.361 171.372 275.289 171.117 275.289C170.854 275.289 170.648 275.346 170.5 275.461C170.352 275.576 170.277 275.725 170.277 275.91C170.277 276.085 170.346 276.216 170.484 276.305C170.622 276.393 170.871 276.478 171.23 276.559C171.592 276.639 171.885 276.736 172.109 276.848C172.333 276.96 172.499 277.095 172.605 277.254C172.715 277.41 172.77 277.602 172.77 277.828C172.77 278.206 172.618 278.509 172.316 278.738C172.014 278.965 171.622 279.078 171.141 279.078C170.802 279.078 170.503 279.018 170.242 278.898C169.982 278.779 169.777 278.612 169.629 278.398C169.483 278.182 169.41 277.949 169.41 277.699H170.133C170.146 277.941 170.242 278.134 170.422 278.277C170.604 278.418 170.844 278.488 171.141 278.488C171.414 278.488 171.633 278.434 171.797 278.324C171.964 278.212 172.047 278.064 172.047 277.879ZM174.496 279H173.773V274.773H174.496V279ZM173.715 273.652C173.715 273.535 173.75 273.436 173.82 273.355C173.893 273.275 174 273.234 174.141 273.234C174.281 273.234 174.388 273.275 174.461 273.355C174.534 273.436 174.57 273.535 174.57 273.652C174.57 273.77 174.534 273.867 174.461 273.945C174.388 274.023 174.281 274.062 174.141 274.062C174 274.062 173.893 274.023 173.82 273.945C173.75 273.867 173.715 273.77 173.715 273.652ZM176.441 279H175.719V273H176.441V279ZM177.41 276.848C177.41 276.434 177.491 276.061 177.652 275.73C177.816 275.4 178.043 275.145 178.332 274.965C178.624 274.785 178.956 274.695 179.328 274.695C179.904 274.695 180.368 274.895 180.723 275.293C181.079 275.691 181.258 276.221 181.258 276.883V276.934C181.258 277.345 181.178 277.715 181.02 278.043C180.863 278.368 180.638 278.622 180.344 278.805C180.052 278.987 179.716 279.078 179.336 279.078C178.763 279.078 178.298 278.879 177.941 278.48C177.587 278.082 177.41 277.555 177.41 276.898V276.848ZM178.137 276.934C178.137 277.402 178.245 277.779 178.461 278.062C178.68 278.346 178.971 278.488 179.336 278.488C179.703 278.488 179.995 278.345 180.211 278.059C180.427 277.77 180.535 277.366 180.535 276.848C180.535 276.384 180.424 276.009 180.203 275.723C179.984 275.434 179.693 275.289 179.328 275.289C178.971 275.289 178.684 275.431 178.465 275.715C178.246 275.999 178.137 276.405 178.137 276.934ZM182.848 274.773L182.871 275.305C183.194 274.898 183.616 274.695 184.137 274.695C185.03 274.695 185.48 275.199 185.488 276.207V279H184.766V276.203C184.763 275.898 184.693 275.673 184.555 275.527C184.419 275.382 184.207 275.309 183.918 275.309C183.684 275.309 183.478 275.371 183.301 275.496C183.124 275.621 182.986 275.785 182.887 275.988V279H182.164V274.773H182.848Z" fill="black"/>
<path id="Delta" d="M164.66 340V334.312H166.266C166.76 334.312 167.198 334.422 167.578 334.641C167.958 334.859 168.251 335.171 168.457 335.574C168.665 335.978 168.771 336.441 168.773 336.965V337.328C168.773 337.865 168.669 338.335 168.461 338.738C168.255 339.142 167.96 339.452 167.574 339.668C167.191 339.884 166.745 339.995 166.234 340H164.66ZM165.41 334.93V339.387H166.199C166.777 339.387 167.227 339.207 167.547 338.848C167.87 338.488 168.031 337.977 168.031 337.312V336.98C168.031 336.335 167.879 335.833 167.574 335.477C167.272 335.117 166.842 334.935 166.285 334.93H165.41ZM171.551 340.078C170.978 340.078 170.512 339.891 170.152 339.516C169.793 339.138 169.613 338.634 169.613 338.004V337.871C169.613 337.452 169.693 337.078 169.852 336.75C170.013 336.419 170.237 336.161 170.523 335.977C170.812 335.789 171.125 335.695 171.461 335.695C172.01 335.695 172.438 335.876 172.742 336.238C173.047 336.6 173.199 337.118 173.199 337.793V338.094H170.336C170.346 338.51 170.467 338.848 170.699 339.105C170.934 339.361 171.23 339.488 171.59 339.488C171.845 339.488 172.061 339.436 172.238 339.332C172.415 339.228 172.57 339.09 172.703 338.918L173.145 339.262C172.79 339.806 172.259 340.078 171.551 340.078ZM171.461 336.289C171.169 336.289 170.924 336.396 170.727 336.609C170.529 336.82 170.406 337.117 170.359 337.5H172.477V337.445C172.456 337.078 172.357 336.794 172.18 336.594C172.003 336.391 171.763 336.289 171.461 336.289ZM174.824 340H174.102V334H174.824V340ZM176.965 334.75V335.773H177.754V336.332H176.965V338.953C176.965 339.122 177 339.25 177.07 339.336C177.141 339.419 177.26 339.461 177.43 339.461C177.513 339.461 177.628 339.445 177.773 339.414V340C177.583 340.052 177.398 340.078 177.219 340.078C176.896 340.078 176.652 339.98 176.488 339.785C176.324 339.59 176.242 339.312 176.242 338.953V336.332H175.473V335.773H176.242V334.75H176.965ZM181.211 340C181.169 339.917 181.135 339.768 181.109 339.555C180.773 339.904 180.372 340.078 179.906 340.078C179.49 340.078 179.147 339.961 178.879 339.727C178.613 339.49 178.48 339.19 178.48 338.828C178.48 338.388 178.647 338.047 178.98 337.805C179.316 337.56 179.788 337.438 180.395 337.438H181.098V337.105C181.098 336.853 181.022 336.652 180.871 336.504C180.72 336.353 180.497 336.277 180.203 336.277C179.945 336.277 179.729 336.342 179.555 336.473C179.38 336.603 179.293 336.76 179.293 336.945H178.566C178.566 336.734 178.641 336.531 178.789 336.336C178.94 336.138 179.143 335.982 179.398 335.867C179.656 335.753 179.939 335.695 180.246 335.695C180.733 335.695 181.115 335.818 181.391 336.062C181.667 336.305 181.81 336.639 181.82 337.066V339.012C181.82 339.4 181.87 339.708 181.969 339.938V340H181.211ZM180.012 339.449C180.238 339.449 180.453 339.391 180.656 339.273C180.859 339.156 181.007 339.004 181.098 338.816V337.949H180.531C179.646 337.949 179.203 338.208 179.203 338.727C179.203 338.953 179.279 339.13 179.43 339.258C179.581 339.385 179.775 339.449 180.012 339.449Z" fill="black"/>
<path id="Gamma" d="M249.859 570.254C249.667 570.53 249.397 570.737 249.051 570.875C248.707 571.01 248.306 571.078 247.848 571.078C247.384 571.078 246.973 570.97 246.613 570.754C246.254 570.535 245.975 570.225 245.777 569.824C245.582 569.423 245.482 568.958 245.477 568.43V567.934C245.477 567.077 245.676 566.413 246.074 565.941C246.475 565.47 247.038 565.234 247.762 565.234C248.355 565.234 248.833 565.387 249.195 565.691C249.557 565.993 249.779 566.423 249.859 566.98H249.109C248.969 566.228 248.521 565.852 247.766 565.852C247.263 565.852 246.882 566.029 246.621 566.383C246.363 566.734 246.233 567.245 246.23 567.914V568.379C246.23 569.017 246.376 569.525 246.668 569.902C246.96 570.277 247.354 570.465 247.852 570.465C248.133 570.465 248.379 570.434 248.59 570.371C248.801 570.309 248.975 570.203 249.113 570.055V568.777H247.797V568.168H249.859V570.254ZM253.609 571C253.568 570.917 253.534 570.768 253.508 570.555C253.172 570.904 252.771 571.078 252.305 571.078C251.888 571.078 251.546 570.961 251.277 570.727C251.012 570.49 250.879 570.19 250.879 569.828C250.879 569.388 251.046 569.047 251.379 568.805C251.715 568.56 252.186 568.438 252.793 568.438H253.496V568.105C253.496 567.853 253.421 567.652 253.27 567.504C253.118 567.353 252.896 567.277 252.602 567.277C252.344 567.277 252.128 567.342 251.953 567.473C251.779 567.603 251.691 567.76 251.691 567.945H250.965C250.965 567.734 251.039 567.531 251.188 567.336C251.339 567.138 251.542 566.982 251.797 566.867C252.055 566.753 252.337 566.695 252.645 566.695C253.132 566.695 253.513 566.818 253.789 567.062C254.065 567.305 254.208 567.639 254.219 568.066V570.012C254.219 570.4 254.268 570.708 254.367 570.938V571H253.609ZM252.41 570.449C252.637 570.449 252.852 570.391 253.055 570.273C253.258 570.156 253.405 570.004 253.496 569.816V568.949H252.93C252.044 568.949 251.602 569.208 251.602 569.727C251.602 569.953 251.677 570.13 251.828 570.258C251.979 570.385 252.173 570.449 252.41 570.449ZM256.031 566.773L256.051 567.242C256.361 566.878 256.779 566.695 257.305 566.695C257.896 566.695 258.298 566.922 258.512 567.375C258.652 567.172 258.835 567.008 259.059 566.883C259.285 566.758 259.552 566.695 259.859 566.695C260.786 566.695 261.258 567.186 261.273 568.168V571H260.551V568.211C260.551 567.909 260.482 567.684 260.344 567.535C260.206 567.384 259.974 567.309 259.648 567.309C259.38 567.309 259.158 567.389 258.98 567.551C258.803 567.71 258.701 567.924 258.672 568.195V571H257.945V568.23C257.945 567.616 257.645 567.309 257.043 567.309C256.569 567.309 256.245 567.51 256.07 567.914V571H255.348V566.773H256.031ZM263.047 566.773L263.066 567.242C263.376 566.878 263.794 566.695 264.32 566.695C264.911 566.695 265.314 566.922 265.527 567.375C265.668 567.172 265.85 567.008 266.074 566.883C266.301 566.758 266.568 566.695 266.875 566.695C267.802 566.695 268.273 567.186 268.289 568.168V571H267.566V568.211C267.566 567.909 267.497 567.684 267.359 567.535C267.221 567.384 266.99 567.309 266.664 567.309C266.396 567.309 266.173 567.389 265.996 567.551C265.819 567.71 265.716 567.924 265.688 568.195V571H264.961V568.23C264.961 567.616 264.66 567.309 264.059 567.309C263.585 567.309 263.26 567.51 263.086 567.914V571H262.363V566.773H263.047ZM271.992 571C271.951 570.917 271.917 570.768 271.891 570.555C271.555 570.904 271.154 571.078 270.688 571.078C270.271 571.078 269.928 570.961 269.66 570.727C269.395 570.49 269.262 570.19 269.262 569.828C269.262 569.388 269.428 569.047 269.762 568.805C270.098 568.56 270.569 568.438 271.176 568.438H271.879V568.105C271.879 567.853 271.803 567.652 271.652 567.504C271.501 567.353 271.279 567.277 270.984 567.277C270.727 567.277 270.51 567.342 270.336 567.473C270.161 567.603 270.074 567.76 270.074 567.945H269.348C269.348 567.734 269.422 567.531 269.57 567.336C269.721 567.138 269.924 566.982 270.18 566.867C270.438 566.753 270.72 566.695 271.027 566.695C271.514 566.695 271.896 566.818 272.172 567.062C272.448 567.305 272.591 567.639 272.602 568.066V570.012C272.602 570.4 272.651 570.708 272.75 570.938V571H271.992ZM270.793 570.449C271.02 570.449 271.234 570.391 271.438 570.273C271.641 570.156 271.788 570.004 271.879 569.816V568.949H271.312C270.427 568.949 269.984 569.208 269.984 569.727C269.984 569.953 270.06 570.13 270.211 570.258C270.362 570.385 270.556 570.449 270.793 570.449Z" fill="black"/>
<path id="Beta" d="M251.66 620V614.312H253.52C254.137 614.312 254.6 614.44 254.91 614.695C255.223 614.951 255.379 615.328 255.379 615.828C255.379 616.094 255.303 616.329 255.152 616.535C255.001 616.738 254.796 616.896 254.535 617.008C254.842 617.094 255.085 617.258 255.262 617.5C255.441 617.74 255.531 618.026 255.531 618.359C255.531 618.87 255.366 619.271 255.035 619.562C254.704 619.854 254.237 620 253.633 620H251.66ZM252.41 617.34V619.387H253.648C253.997 619.387 254.272 619.297 254.473 619.117C254.676 618.935 254.777 618.685 254.777 618.367C254.777 617.682 254.405 617.34 253.66 617.34H252.41ZM252.41 616.738H253.543C253.871 616.738 254.133 616.656 254.328 616.492C254.526 616.328 254.625 616.105 254.625 615.824C254.625 615.512 254.534 615.285 254.352 615.145C254.169 615.001 253.892 614.93 253.52 614.93H252.41V616.738ZM258.285 620.078C257.712 620.078 257.246 619.891 256.887 619.516C256.527 619.138 256.348 618.634 256.348 618.004V617.871C256.348 617.452 256.427 617.078 256.586 616.75C256.747 616.419 256.971 616.161 257.258 615.977C257.547 615.789 257.859 615.695 258.195 615.695C258.745 615.695 259.172 615.876 259.477 616.238C259.781 616.6 259.934 617.118 259.934 617.793V618.094H257.07C257.081 618.51 257.202 618.848 257.434 619.105C257.668 619.361 257.965 619.488 258.324 619.488C258.579 619.488 258.796 619.436 258.973 619.332C259.15 619.228 259.305 619.09 259.438 618.918L259.879 619.262C259.525 619.806 258.993 620.078 258.285 620.078ZM258.195 616.289C257.904 616.289 257.659 616.396 257.461 616.609C257.263 616.82 257.141 617.117 257.094 617.5H259.211V617.445C259.19 617.078 259.091 616.794 258.914 616.594C258.737 616.391 258.497 616.289 258.195 616.289ZM261.754 614.75V615.773H262.543V616.332H261.754V618.953C261.754 619.122 261.789 619.25 261.859 619.336C261.93 619.419 262.049 619.461 262.219 619.461C262.302 619.461 262.417 619.445 262.562 619.414V620C262.372 620.052 262.188 620.078 262.008 620.078C261.685 620.078 261.441 619.98 261.277 619.785C261.113 619.59 261.031 619.312 261.031 618.953V616.332H260.262V615.773H261.031V614.75H261.754ZM266 620C265.958 619.917 265.924 619.768 265.898 619.555C265.562 619.904 265.161 620.078 264.695 620.078C264.279 620.078 263.936 619.961 263.668 619.727C263.402 619.49 263.27 619.19 263.27 618.828C263.27 618.388 263.436 618.047 263.77 617.805C264.105 617.56 264.577 617.438 265.184 617.438H265.887V617.105C265.887 616.853 265.811 616.652 265.66 616.504C265.509 616.353 265.286 616.277 264.992 616.277C264.734 616.277 264.518 616.342 264.344 616.473C264.169 616.603 264.082 616.76 264.082 616.945H263.355C263.355 616.734 263.43 616.531 263.578 616.336C263.729 616.138 263.932 615.982 264.188 615.867C264.445 615.753 264.728 615.695 265.035 615.695C265.522 615.695 265.904 615.818 266.18 616.062C266.456 616.305 266.599 616.639 266.609 617.066V619.012C266.609 619.4 266.659 619.708 266.758 619.938V620H266ZM264.801 619.449C265.027 619.449 265.242 619.391 265.445 619.273C265.648 619.156 265.796 619.004 265.887 618.816V617.949H265.32C264.435 617.949 263.992 618.208 263.992 618.727C263.992 618.953 264.068 619.13 264.219 619.258C264.37 619.385 264.564 619.449 264.801 619.449Z" fill="black"/>
<g id="Frame" clip-path="url(#clip0)">
<path id="Vector" d="M311.668 2034.78C312.29 2034.78 312.794 2034.27 312.794 2033.64C312.794 2033.01 312.29 2032.5 311.668 2032.5C311.046 2032.5 310.542 2033.01 310.542 2033.64C310.542 2034.27 311.046 2034.78 311.668 2034.78Z" fill="black"/>
<path id="Vector_2" d="M311.512 2042V2045.96C311.506 2046.68 310.447 2046.68 310.438 2045.96V2042H309.052L310.542 2036.71H310.3L309.433 2039.72C309.214 2040.39 308.323 2040.12 308.532 2039.41L309.503 2036.15C309.614 2035.77 310.081 2035.11 310.889 2035.09H311.616H312.448C313.233 2035.11 313.701 2035.78 313.834 2036.15L314.804 2039.41C315.001 2040.12 314.117 2040.41 313.903 2039.72L313.037 2036.71H312.76L314.284 2042H312.864V2045.96C312.875 2046.68 311.82 2046.68 311.824 2045.96V2042H311.512Z" fill="black"/>
<path id="Vector_3" d="M320.885 2034.78C321.507 2034.78 322.011 2034.27 322.011 2033.64C322.011 2033.01 321.507 2032.5 320.885 2032.5C320.263 2032.5 319.759 2033.01 319.759 2033.64C319.759 2034.27 320.263 2034.78 320.885 2034.78Z" fill="black"/>
<path id="Vector_4" d="M319.689 2035.09C318.824 2035.09 318.269 2035.85 318.269 2036.6V2040.11C318.261 2040.79 319.236 2040.79 319.239 2040.11V2036.88H319.482V2045.79C319.467 2046.72 320.765 2046.69 320.764 2045.79V2040.6H320.971V2045.79C320.988 2046.69 322.294 2046.72 322.288 2045.79V2036.88H322.531V2040.11C322.519 2040.8 323.489 2040.8 323.501 2040.11V2036.6C323.487 2035.85 322.911 2035.11 322.046 2035.09H319.689Z" fill="black"/>
<path id="Vector_5" d="M316.987 2032.64H315.705V2046.42H316.987V2032.64Z" fill="black"/>
</g>
<g id="Frame_2" clip-path="url(#clip1)">
<path id="Vector_6" d="M294.668 2034.78C295.29 2034.78 295.794 2034.27 295.794 2033.64C295.794 2033.01 295.29 2032.5 294.668 2032.5C294.046 2032.5 293.542 2033.01 293.542 2033.64C293.542 2034.27 294.046 2034.78 294.668 2034.78Z" fill="black"/>
<path id="Vector_7" d="M294.512 2042V2045.96C294.506 2046.68 293.447 2046.68 293.438 2045.96V2042H292.052L293.542 2036.71H293.3L292.433 2039.72C292.214 2040.39 291.323 2040.12 291.532 2039.41L292.503 2036.15C292.614 2035.77 293.081 2035.11 293.889 2035.09H294.616H295.448C296.233 2035.11 296.701 2035.78 296.834 2036.15L297.804 2039.41C298.001 2040.12 297.117 2040.41 296.903 2039.72L296.037 2036.71H295.76L297.284 2042H295.864V2045.96C295.875 2046.68 294.82 2046.68 294.824 2045.96V2042H294.512Z" fill="black"/>
<path id="Vector_8" d="M303.885 2034.78C304.507 2034.78 305.011 2034.27 305.011 2033.64C305.011 2033.01 304.507 2032.5 303.885 2032.5C303.263 2032.5 302.759 2033.01 302.759 2033.64C302.759 2034.27 303.263 2034.78 303.885 2034.78Z" fill="black"/>
<path id="Vector_9" d="M302.689 2035.09C301.824 2035.09 301.269 2035.85 301.269 2036.6V2040.11C301.261 2040.79 302.236 2040.79 302.239 2040.11V2036.88H302.482V2045.79C302.467 2046.72 303.765 2046.69 303.764 2045.79V2040.6H303.971V2045.79C303.988 2046.69 305.294 2046.72 305.288 2045.79V2036.88H305.531V2040.11C305.519 2040.8 306.489 2040.8 306.501 2040.11V2036.6C306.487 2035.85 305.911 2035.11 305.046 2035.09H302.689Z" fill="black"/>
<path id="Vector_10" d="M299.987 2032.64H298.705V2046.42H299.987V2032.64Z" fill="black"/>
</g>
<g id="Frame_3" clip-path="url(#clip2)">
<path id="Vector_11" d="M234.668 245.779C235.29 245.779 235.794 245.269 235.794 244.64C235.794 244.011 235.29 243.501 234.668 243.501C234.046 243.501 233.542 244.011 233.542 244.64C233.542 245.269 234.046 245.779 234.668 245.779Z" fill="black"/>
<path id="Vector_12" d="M234.512 253V256.961C234.506 257.681 233.447 257.681 233.438 256.961V253H232.052L233.542 247.707H233.3L232.433 250.722C232.214 251.389 231.323 251.119 231.532 250.406L232.503 247.146C232.614 246.772 233.081 246.111 233.889 246.095H234.616H235.448C236.233 246.111 236.701 246.778 236.834 247.146L237.804 250.406C238.001 251.115 237.117 251.406 236.903 250.722L236.037 247.707H235.76L237.284 253H235.864V256.961C235.875 257.681 234.82 257.677 234.824 256.961V253H234.512Z" fill="black"/>
<path id="Vector_13" d="M243.885 245.779C244.507 245.779 245.011 245.269 245.011 244.64C245.011 244.011 244.507 243.501 243.885 243.501C243.263 243.501 242.759 244.011 242.759 244.64C242.759 245.269 243.263 245.779 243.885 245.779Z" fill="black"/>
<path id="Vector_14" d="M242.689 246.095C241.824 246.095 241.269 246.853 241.269 247.602V251.107C241.261 251.792 242.236 251.792 242.239 251.107V247.883H242.482V256.786C242.467 257.716 243.765 257.689 243.764 256.786V251.598H243.971V256.786C243.988 257.689 245.294 257.716 245.288 256.786V247.883H245.531V251.107C245.519 251.798 246.489 251.798 246.501 251.107V247.602C246.487 246.853 245.911 246.108 245.046 246.095H242.689Z" fill="black"/>
<path id="Vector_15" d="M239.987 243.641H238.705V257.417H239.987V243.641Z" fill="black"/>
</g>
<g id="Frame_4" clip-path="url(#clip3)">
<path id="Vector_16" d="M272.668 245.779C273.29 245.779 273.794 245.269 273.794 244.64C273.794 244.011 273.29 243.501 272.668 243.501C272.046 243.501 271.542 244.011 271.542 244.64C271.542 245.269 272.046 245.779 272.668 245.779Z" fill="black"/>
<path id="Vector_17" d="M272.512 253V256.961C272.506 257.681 271.447 257.681 271.438 256.961V253H270.052L271.542 247.707H271.3L270.433 250.722C270.214 251.389 269.323 251.119 269.532 250.406L270.503 247.146C270.614 246.772 271.081 246.111 271.889 246.095H272.616H273.448C274.233 246.111 274.701 246.778 274.834 247.146L275.804 250.406C276.001 251.115 275.117 251.406 274.903 250.722L274.037 247.707H273.76L275.284 253H273.864V256.961C273.875 257.681 272.82 257.677 272.824 256.961V253H272.512Z" fill="black"/>
<path id="Vector_18" d="M281.885 245.779C282.507 245.779 283.011 245.269 283.011 244.64C283.011 244.011 282.507 243.501 281.885 243.501C281.263 243.501 280.759 244.011 280.759 244.64C280.759 245.269 281.263 245.779 281.885 245.779Z" fill="black"/>
<path id="Vector_19" d="M280.689 246.095C279.824 246.095 279.269 246.853 279.269 247.602V251.107C279.261 251.792 280.236 251.792 280.239 251.107V247.883H280.482V256.786C280.467 257.716 281.765 257.689 281.764 256.786V251.598H281.971V256.786C281.988 257.689 283.294 257.716 283.288 256.786V247.883H283.531V251.107C283.519 251.798 284.489 251.798 284.501 251.107V247.602C284.487 246.853 283.911 246.108 283.046 246.095H280.689Z" fill="black"/>
<path id="Vector_20" d="M277.987 243.641H276.705V257.417H277.987V243.641Z" fill="black"/>
</g>
<g id="Frame_5" clip-path="url(#clip4)">
<path id="Vector_21" d="M260.721 757.168C260.721 757.79 261.231 758.294 261.86 758.294C262.489 758.294 262.999 757.79 262.999 757.168C262.999 756.546 262.489 756.042 261.86 756.042C261.231 756.042 260.721 756.546 260.721 757.168Z" fill="black"/>
<path id="Vector_22" d="M253.5 757.012H249.539C248.819 757.006 248.819 755.947 249.539 755.938H253.5V754.552L258.793 756.042V755.8L255.778 754.933C255.111 754.714 255.381 753.823 256.094 754.032L259.354 755.003C259.728 755.114 260.389 755.581 260.405 756.389V757.116V757.948C260.389 758.733 259.722 759.201 259.354 759.334L256.094 760.304C255.385 760.501 255.094 759.617 255.778 759.403L258.793 758.537V758.26L253.5 759.784V758.364H249.539C248.819 758.375 248.823 757.32 249.539 757.324H253.5V757.012Z" fill="black"/>
<path id="Vector_23" d="M260.721 766.385C260.721 767.007 261.231 767.511 261.86 767.511C262.489 767.511 262.999 767.007 262.999 766.385C262.999 765.763 262.489 765.259 261.86 765.259C261.231 765.259 260.721 765.763 260.721 766.385Z" fill="black"/>
<path id="Vector_24" d="M260.405 765.189C260.405 764.324 259.647 763.769 258.898 763.769H255.393C254.708 763.761 254.708 764.736 255.393 764.739H258.617V764.982H249.714C248.784 764.967 248.811 766.265 249.714 766.264H254.902V766.471H249.714C248.811 766.488 248.784 767.794 249.714 767.788H258.617V768.031H255.393C254.702 768.019 254.702 768.989 255.393 769.001H258.898C259.647 768.987 260.392 768.411 260.405 767.546V765.189Z" fill="black"/>
<path id="Vector_25" d="M262.859 762.487V761.205H249.083V762.487H262.859Z" fill="black"/>
</g>
<g id="Frame_6" clip-path="url(#clip5)">
<path id="Vector_26" d="M260.721 839.168C260.721 839.79 261.231 840.294 261.86 840.294C262.489 840.294 262.999 839.79 262.999 839.168C262.999 838.546 262.489 838.042 261.86 838.042C261.231 838.042 260.721 838.546 260.721 839.168Z" fill="black"/>
<path id="Vector_27" d="M253.5 839.012H249.539C248.819 839.006 248.819 837.947 249.539 837.938H253.5V836.552L258.793 838.042V837.8L255.778 836.933C255.111 836.714 255.381 835.823 256.094 836.032L259.354 837.003C259.728 837.114 260.389 837.581 260.405 838.389V839.116V839.948C260.389 840.733 259.722 841.201 259.354 841.334L256.094 842.304C255.385 842.501 255.094 841.617 255.778 841.403L258.793 840.537V840.26L253.5 841.784V840.364H249.539C248.819 840.375 248.823 839.32 249.539 839.324H253.5V839.012Z" fill="black"/>
<path id="Vector_28" d="M260.721 848.385C260.721 849.007 261.231 849.511 261.86 849.511C262.489 849.511 262.999 849.007 262.999 848.385C262.999 847.763 262.489 847.259 261.86 847.259C261.231 847.259 260.721 847.763 260.721 848.385Z" fill="black"/>
<path id="Vector_29" d="M260.405 847.189C260.405 846.324 259.647 845.769 258.898 845.769H255.393C254.708 845.761 254.708 846.736 255.393 846.739H258.617V846.982H249.714C248.784 846.967 248.811 848.265 249.714 848.264H254.902V848.471H249.714C248.811 848.488 248.784 849.794 249.714 849.788H258.617V850.031H255.393C254.702 850.019 254.702 850.989 255.393 851.001H258.898C259.647 850.987 260.392 850.411 260.405 849.546V847.189Z" fill="black"/>
<path id="Vector_30" d="M262.859 844.487V843.205H249.083V844.487H262.859Z" fill="black"/>
</g>
<g id="Frame_7" clip-path="url(#clip6)">
<path id="Vector_31" d="M254.668 245.779C255.29 245.779 255.794 245.269 255.794 244.64C255.794 244.011 255.29 243.501 254.668 243.501C254.046 243.501 253.542 244.011 253.542 244.64C253.542 245.269 254.046 245.779 254.668 245.779Z" fill="black"/>
<path id="Vector_32" d="M254.512 253V256.961C254.506 257.681 253.447 257.681 253.438 256.961V253H252.052L253.542 247.707H253.3L252.433 250.722C252.214 251.389 251.323 251.119 251.532 250.406L252.503 247.146C252.614 246.772 253.081 246.111 253.889 246.095H254.616H255.448C256.233 246.111 256.701 246.778 256.834 247.146L257.804 250.406C258.001 251.115 257.117 251.406 256.903 250.722L256.037 247.707H255.76L257.284 253H255.864V256.961C255.875 257.681 254.82 257.677 254.824 256.961V253H254.512Z" fill="black"/>
<path id="Vector_33" d="M263.885 245.779C264.507 245.779 265.011 245.269 265.011 244.64C265.011 244.011 264.507 243.501 263.885 243.501C263.263 243.501 262.759 244.011 262.759 244.64C262.759 245.269 263.263 245.779 263.885 245.779Z" fill="black"/>
<path id="Vector_34" d="M262.689 246.095C261.824 246.095 261.269 246.853 261.269 247.602V251.107C261.261 251.792 262.236 251.792 262.239 251.107V247.883H262.482V256.786C262.467 257.716 263.765 257.689 263.764 256.786V251.598H263.971V256.786C263.988 257.689 265.294 257.716 265.288 256.786V247.883H265.531V251.107C265.519 251.798 266.489 251.798 266.501 251.107V247.602C266.487 246.853 265.911 246.108 265.046 246.095H262.689Z" fill="black"/>
<path id="Vector_35" d="M259.987 243.641H258.705V257.417H259.987V243.641Z" fill="black"/>
</g>
<path id="Kantina" d="M266.658 2285.53L265.615 2286.62V2289.5H264.49V2280.97H265.615V2285.19L269.406 2280.97H270.766L267.408 2284.74L271.029 2289.5H269.682L266.658 2285.53ZM275.758 2289.5C275.695 2289.38 275.645 2289.15 275.605 2288.83C275.102 2289.36 274.5 2289.62 273.801 2289.62C273.176 2289.62 272.662 2289.44 272.26 2289.09C271.861 2288.73 271.662 2288.29 271.662 2287.74C271.662 2287.08 271.912 2286.57 272.412 2286.21C272.916 2285.84 273.623 2285.66 274.533 2285.66H275.588V2285.16C275.588 2284.78 275.475 2284.48 275.248 2284.26C275.021 2284.03 274.688 2283.92 274.246 2283.92C273.859 2283.92 273.535 2284.01 273.273 2284.21C273.012 2284.4 272.881 2284.64 272.881 2284.92H271.791C271.791 2284.6 271.902 2284.3 272.125 2284C272.352 2283.71 272.656 2283.47 273.039 2283.3C273.426 2283.13 273.85 2283.04 274.311 2283.04C275.041 2283.04 275.613 2283.23 276.027 2283.59C276.441 2283.96 276.656 2284.46 276.672 2285.1V2288.02C276.672 2288.6 276.746 2289.06 276.895 2289.41V2289.5H275.758ZM273.959 2288.67C274.299 2288.67 274.621 2288.59 274.926 2288.41C275.23 2288.23 275.451 2288.01 275.588 2287.72V2286.42H274.738C273.41 2286.42 272.746 2286.81 272.746 2287.59C272.746 2287.93 272.859 2288.2 273.086 2288.39C273.312 2288.58 273.604 2288.67 273.959 2288.67ZM279.396 2283.16L279.432 2283.96C279.916 2283.35 280.549 2283.04 281.33 2283.04C282.67 2283.04 283.346 2283.8 283.357 2285.31V2289.5H282.273V2285.3C282.27 2284.85 282.164 2284.51 281.957 2284.29C281.754 2284.07 281.436 2283.96 281.002 2283.96C280.65 2283.96 280.342 2284.06 280.076 2284.24C279.811 2284.43 279.604 2284.68 279.455 2284.98V2289.5H278.371V2283.16H279.396ZM286.463 2281.62V2283.16H287.646V2284H286.463V2287.93C286.463 2288.18 286.516 2288.38 286.621 2288.5C286.727 2288.63 286.906 2288.69 287.16 2288.69C287.285 2288.69 287.457 2288.67 287.676 2288.62V2289.5C287.391 2289.58 287.113 2289.62 286.844 2289.62C286.359 2289.62 285.994 2289.47 285.748 2289.18C285.502 2288.88 285.379 2288.47 285.379 2287.93V2284H284.225V2283.16H285.379V2281.62H286.463ZM290.096 2289.5H289.012V2283.16H290.096V2289.5ZM288.924 2281.48C288.924 2281.3 288.977 2281.15 289.082 2281.03C289.191 2280.91 289.352 2280.85 289.562 2280.85C289.773 2280.85 289.934 2280.91 290.043 2281.03C290.152 2281.15 290.207 2281.3 290.207 2281.48C290.207 2281.65 290.152 2281.8 290.043 2281.92C289.934 2282.04 289.773 2282.09 289.562 2282.09C289.352 2282.09 289.191 2282.04 289.082 2281.92C288.977 2281.8 288.924 2281.65 288.924 2281.48ZM292.861 2283.16L292.896 2283.96C293.381 2283.35 294.014 2283.04 294.795 2283.04C296.135 2283.04 296.811 2283.8 296.822 2285.31V2289.5H295.738V2285.3C295.734 2284.85 295.629 2284.51 295.422 2284.29C295.219 2284.07 294.9 2283.96 294.467 2283.96C294.115 2283.96 293.807 2284.06 293.541 2284.24C293.275 2284.43 293.068 2284.68 292.92 2284.98V2289.5H291.836V2283.16H292.861ZM302.371 2289.5C302.309 2289.38 302.258 2289.15 302.219 2288.83C301.715 2289.36 301.113 2289.62 300.414 2289.62C299.789 2289.62 299.275 2289.44 298.873 2289.09C298.475 2288.73 298.275 2288.29 298.275 2287.74C298.275 2287.08 298.525 2286.57 299.025 2286.21C299.529 2285.84 300.236 2285.66 301.146 2285.66H302.201V2285.16C302.201 2284.78 302.088 2284.48 301.861 2284.26C301.635 2284.03 301.301 2283.92 300.859 2283.92C300.473 2283.92 300.148 2284.01 299.887 2284.21C299.625 2284.4 299.494 2284.64 299.494 2284.92H298.404C298.404 2284.6 298.516 2284.3 298.738 2284C298.965 2283.71 299.27 2283.47 299.652 2283.3C300.039 2283.13 300.463 2283.04 300.924 2283.04C301.654 2283.04 302.227 2283.23 302.641 2283.59C303.055 2283.96 303.27 2284.46 303.285 2285.1V2288.02C303.285 2288.6 303.359 2289.06 303.508 2289.41V2289.5H302.371ZM300.572 2288.67C300.912 2288.67 301.234 2288.59 301.539 2288.41C301.844 2288.23 302.064 2288.01 302.201 2287.72V2286.42H301.352C300.023 2286.42 299.359 2286.81 299.359 2287.59C299.359 2287.93 299.473 2288.2 299.699 2288.39C299.926 2288.58 300.217 2288.67 300.572 2288.67Z" fill="black"/>
<path id="Python" d="M365.115 120.66V124H363.99V115.469H367.137C368.07 115.469 368.801 115.707 369.328 116.184C369.859 116.66 370.125 117.291 370.125 118.076C370.125 118.904 369.865 119.543 369.346 119.992C368.83 120.438 368.09 120.66 367.125 120.66H365.115ZM365.115 119.74H367.137C367.738 119.74 368.199 119.6 368.52 119.318C368.84 119.033 369 118.623 369 118.088C369 117.58 368.84 117.174 368.52 116.869C368.199 116.564 367.76 116.406 367.201 116.395H365.115V119.74ZM373.559 122.412L375.035 117.66H376.195L373.646 124.979C373.252 126.033 372.625 126.561 371.766 126.561L371.561 126.543L371.156 126.467V125.588L371.449 125.611C371.816 125.611 372.102 125.537 372.305 125.389C372.512 125.24 372.682 124.969 372.814 124.574L373.055 123.93L370.793 117.66H371.977L373.559 122.412ZM378.639 116.125V117.66H379.822V118.498H378.639V122.43C378.639 122.684 378.691 122.875 378.797 123.004C378.902 123.129 379.082 123.191 379.336 123.191C379.461 123.191 379.633 123.168 379.852 123.121V124C379.566 124.078 379.289 124.117 379.02 124.117C378.535 124.117 378.17 123.971 377.924 123.678C377.678 123.385 377.555 122.969 377.555 122.43V118.498H376.4V117.66H377.555V116.125H378.639ZM382.178 118.428C382.658 117.838 383.283 117.543 384.053 117.543C385.393 117.543 386.068 118.299 386.08 119.811V124H384.996V119.805C384.992 119.348 384.887 119.01 384.68 118.791C384.477 118.572 384.158 118.463 383.725 118.463C383.373 118.463 383.064 118.557 382.799 118.744C382.533 118.932 382.326 119.178 382.178 119.482V124H381.094V115H382.178V118.428ZM387.416 120.771C387.416 120.15 387.537 119.592 387.779 119.096C388.025 118.6 388.365 118.217 388.799 117.947C389.236 117.678 389.734 117.543 390.293 117.543C391.156 117.543 391.854 117.842 392.385 118.439C392.92 119.037 393.188 119.832 393.188 120.824V120.9C393.188 121.518 393.068 122.072 392.83 122.564C392.596 123.053 392.258 123.434 391.816 123.707C391.379 123.98 390.875 124.117 390.305 124.117C389.445 124.117 388.748 123.818 388.213 123.221C387.682 122.623 387.416 121.832 387.416 120.848V120.771ZM388.506 120.9C388.506 121.604 388.668 122.168 388.992 122.594C389.32 123.02 389.758 123.232 390.305 123.232C390.855 123.232 391.293 123.018 391.617 122.588C391.941 122.154 392.104 121.549 392.104 120.771C392.104 120.076 391.938 119.514 391.605 119.084C391.277 118.65 390.84 118.434 390.293 118.434C389.758 118.434 389.326 118.646 388.998 119.072C388.67 119.498 388.506 120.107 388.506 120.9ZM395.572 117.66L395.607 118.457C396.092 117.848 396.725 117.543 397.506 117.543C398.846 117.543 399.521 118.299 399.533 119.811V124H398.449V119.805C398.445 119.348 398.34 119.01 398.133 118.791C397.93 118.572 397.611 118.463 397.178 118.463C396.826 118.463 396.518 118.557 396.252 118.744C395.986 118.932 395.779 119.178 395.631 119.482V124H394.547V117.66H395.572Z" fill="black"/>
<path id="Alfa" d="M251.801 1075.52H249.418L248.883 1077H248.109L250.281 1071.31H250.938L253.113 1077H252.344L251.801 1075.52ZM249.645 1074.9H251.578L250.609 1072.24L249.645 1074.9ZM254.551 1077H253.828V1071H254.551V1077ZM256.066 1077V1073.33H255.398V1072.77H256.066V1072.34C256.066 1071.89 256.188 1071.54 256.43 1071.29C256.672 1071.04 257.014 1070.92 257.457 1070.92C257.624 1070.92 257.789 1070.94 257.953 1070.98L257.914 1071.57C257.792 1071.55 257.661 1071.54 257.523 1071.54C257.289 1071.54 257.108 1071.6 256.98 1071.74C256.853 1071.88 256.789 1072.07 256.789 1072.33V1072.77H257.691V1073.33H256.789V1077H256.066ZM261.102 1077C261.06 1076.92 261.026 1076.77 261 1076.55C260.664 1076.9 260.263 1077.08 259.797 1077.08C259.38 1077.08 259.038 1076.96 258.77 1076.73C258.504 1076.49 258.371 1076.19 258.371 1075.83C258.371 1075.39 258.538 1075.05 258.871 1074.8C259.207 1074.56 259.678 1074.44 260.285 1074.44H260.988V1074.11C260.988 1073.85 260.913 1073.65 260.762 1073.5C260.611 1073.35 260.388 1073.28 260.094 1073.28C259.836 1073.28 259.62 1073.34 259.445 1073.47C259.271 1073.6 259.184 1073.76 259.184 1073.95H258.457C258.457 1073.73 258.531 1073.53 258.68 1073.34C258.831 1073.14 259.034 1072.98 259.289 1072.87C259.547 1072.75 259.829 1072.7 260.137 1072.7C260.624 1072.7 261.005 1072.82 261.281 1073.06C261.557 1073.3 261.701 1073.64 261.711 1074.07V1076.01C261.711 1076.4 261.76 1076.71 261.859 1076.94V1077H261.102ZM259.902 1076.45C260.129 1076.45 260.344 1076.39 260.547 1076.27C260.75 1076.16 260.897 1076 260.988 1075.82V1074.95H260.422C259.536 1074.95 259.094 1075.21 259.094 1075.73C259.094 1075.95 259.169 1076.13 259.32 1076.26C259.471 1076.39 259.665 1076.45 259.902 1076.45Z" fill="black"/>
<g id="g1378">
<path id="path1380" d="M137.577 889V894.293H142.965V899.552H148.389V904.895H153.712V910.2H159V918.078H156.302V912.841H150.994V907.529H145.61V902.228H140.255V896.905H134.855V889H137.577Z" fill="black"/>
<path id="path1382" d="M134.96 906.639V911.32C134.96 912.61 136.944 912.659 136.944 911.32V908.921L141.507 913.484C142.519 914.496 143.982 913.065 142.908 911.99L138.4 907.495H140.775C142.064 907.502 142.114 905.501 140.775 905.498H136.123C135.428 905.498 134.96 905.964 134.96 906.639Z" fill="black"/>
</g>
<g id="g1378_2">
<path id="path1380_2" d="M146.577 596V601.293H151.965V606.552H157.389V611.895H162.712V617.2H168V625.078H165.302V619.841H159.994V614.529H154.61V609.228H149.255V603.905H143.855V596H146.577Z" fill="black"/>
<path id="path1382_2" d="M143.96 613.639V618.32C143.96 619.61 145.944 619.659 145.944 618.32V615.921L150.507 620.484C151.519 621.496 152.982 620.065 151.908 618.99L147.4 614.495H149.775C151.064 614.502 151.114 612.501 149.775 612.498H145.123C144.428 612.498 143.96 612.964 143.96 613.639Z" fill="black"/>
</g>
<g id="g1378_3">
<path id="path1380_3" d="M137.577 1975V1980.29H142.965V1985.55H148.389V1990.89L153.712 1990.89V1996.2H159V2004.08H156.302V1998.84H150.994V1993.53H145.61V1988.23H140.255V1982.91H134.855V1975H137.577Z" fill="black"/>
<path id="path1382_3" d="M134.96 1992.64V1997.32C134.96 1998.61 136.944 1998.66 136.944 1997.32V1994.92L141.507 1999.48C142.519 2000.5 143.982 1999.07 142.908 1997.99L138.4 1993.49H140.775C142.064 1993.5 142.114 1991.5 140.775 1991.5H136.123C135.428 1991.5 134.96 1991.96 134.96 1992.64Z" fill="black"/>
</g>
<g id="g1378_4">
<path id="path1380_4" d="M297.142 2154V2158.17H301.382V2162.3H305.65V2166.51H309.839V2170.68H314V2176.88H311.877V2172.76H307.7V2168.58H303.464V2164.41H299.25V2160.22H295V2154H297.142Z" fill="black"/>
<path id="path1382_4" d="M295.082 2167.88V2171.56C295.082 2172.58 296.643 2172.62 296.643 2171.56V2169.68L300.234 2173.27C301.031 2174.06 302.183 2172.94 301.337 2172.09L297.789 2168.55H299.658C300.673 2168.56 300.712 2166.99 299.658 2166.98H295.998C295.451 2166.98 295.082 2167.35 295.082 2167.88Z" fill="black"/>
</g>
<path id="Ellipse 1" d="M229.5 1104.91C229.5 1104.74 229.5 1104.58 229.5 1103.5H238.487C238.236 1108.35 234.349 1112.24 229.5 1112.49C229.5 1112.23 229.5 1112.19 229.5 1112.16C229.5 1112.07 229.5 1111.98 229.5 1108.5C229.5 1105.39 229.5 1105.15 229.5 1104.91Z" fill="#EDDEB7" stroke="black"/>
<path id="Ellipse 5" d="M229.5 994.906C229.5 994.741 229.5 994.575 229.5 993.5H238.487C238.236 998.349 234.349 1002.24 229.5 1002.49C229.5 1002.23 229.5 1002.19 229.5 1002.16C229.5 1002.07 229.5 1001.98 229.5 998.5C229.5 995.391 229.5 995.149 229.5 994.906Z" fill="#EDDEB7" stroke="black"/>
<path id="Ellipse 14" d="M255.5 709.906C255.5 709.741 255.5 709.575 255.5 708.5H264.487C264.236 713.349 260.349 717.236 255.5 717.487C255.5 717.227 255.5 717.191 255.5 717.156C255.5 717.067 255.5 716.978 255.5 713.5C255.5 710.391 255.5 710.149 255.5 709.906Z" fill="#EDDEB7" stroke="black"/>
<path id="Ellipse 7" d="M255.5 663.906C255.5 663.741 255.5 663.575 255.5 662.5H264.487C264.236 667.349 260.349 671.236 255.5 671.487C255.5 671.227 255.5 671.191 255.5 671.156C255.5 671.067 255.5 670.978 255.5 667.5C255.5 664.391 255.5 664.149 255.5 663.906Z" fill="#EDDEB7" stroke="black"/>
<path id="Ellipse 8" d="M271.5 504.906C271.5 504.741 271.5 504.575 271.5 503.5H280.487C280.236 508.349 276.349 512.236 271.5 512.487C271.5 512.227 271.5 512.191 271.5 512.156C271.5 512.067 271.5 511.978 271.5 508.5C271.5 505.391 271.5 505.149 271.5 504.906Z" fill="#EDDEB7" stroke="black"/>
<path id="Ellipse 9" d="M206.5 256.094C206.5 256.259 206.5 256.425 206.5 257.5H197.513C197.764 252.651 201.651 248.764 206.5 248.513C206.5 248.773 206.5 248.809 206.5 248.844C206.5 248.933 206.5 249.022 206.5 252.5C206.5 255.609 206.5 255.851 206.5 256.094Z" fill="#EDDEB7" stroke="black"/>
<path id="Ellipse 10" d="M206.5 327.094C206.5 327.259 206.5 327.425 206.5 328.5H197.513C197.764 323.651 201.651 319.764 206.5 319.513C206.5 319.773 206.5 319.809 206.5 319.844C206.5 319.933 206.5 320.022 206.5 323.5C206.5 326.609 206.5 326.851 206.5 327.094Z" fill="#EDDEB7" stroke="black"/>
<path id="Ellipse 11" d="M206.5 178.094C206.5 178.259 206.5 178.425 206.5 179.5H197.513C197.764 174.651 201.651 170.764 206.5 170.513C206.5 170.773 206.5 170.809 206.5 170.844C206.5 170.933 206.5 171.022 206.5 174.5C206.5 177.609 206.5 177.851 206.5 178.094Z" fill="#EDDEB7" stroke="black"/>
<path id="Ellipse 12" d="M248.5 164.094C248.5 164.259 248.5 164.425 248.5 165.5H239.513C239.764 160.651 243.651 156.764 248.5 156.513C248.5 156.773 248.5 156.809 248.5 156.844C248.5 156.933 248.5 157.022 248.5 160.5C248.5 163.609 248.5 163.851 248.5 164.094Z" fill="#EDDEB7" stroke="black"/>
<path id="Ellipse 13" d="M337.094 263.5C337.259 263.5 337.425 263.5 338.5 263.5V272.487C333.651 272.236 329.764 268.349 329.513 263.5C329.773 263.5 329.809 263.5 329.844 263.5C329.933 263.5 330.022 263.5 333.5 263.5C336.609 263.5 336.851 263.5 337.094 263.5Z" fill="#EDDEB7" stroke="black"/>
<path id="Ellipse 3" d="M229.5 1660.91C229.5 1660.74 229.5 1660.58 229.5 1659.5H238.487C238.236 1664.35 234.349 1668.24 229.5 1668.49C229.5 1668.23 229.5 1668.19 229.5 1668.16C229.5 1668.07 229.5 1667.98 229.5 1664.5C229.5 1661.39 229.5 1661.15 229.5 1660.91Z" fill="#EDDEB7" stroke="black"/>
<path id="Ellipse 4" d="M213.094 2060.5C213.259 2060.5 213.425 2060.5 214.5 2060.5V2069.49C209.651 2069.24 205.764 2065.35 205.513 2060.5C205.773 2060.5 205.809 2060.5 205.844 2060.5C205.933 2060.5 206.022 2060.5 209.5 2060.5C212.609 2060.5 212.851 2060.5 213.094 2060.5Z" fill="#EDDEB7" stroke="black"/>
<path id="Ellipse 2" d="M329.906 1506.5C329.741 1506.5 329.575 1506.5 328.5 1506.5V1497.51C333.349 1497.76 337.236 1501.65 337.487 1506.5C337.227 1506.5 337.191 1506.5 337.156 1506.5C337.067 1506.5 336.978 1506.5 333.5 1506.5C330.391 1506.5 330.149 1506.5 329.906 1506.5Z" fill="#EDDEB7" stroke="black"/>
</g>
<defs>
<clipPath id="clip0">
<rect width="15" height="14" fill="white" transform="translate(308.5 2032.5)"/>
</clipPath>
<clipPath id="clip1">
<rect width="15" height="14" fill="white" transform="translate(291.5 2032.5)"/>
</clipPath>
<clipPath id="clip2">
<rect width="15" height="14" fill="white" transform="translate(231.5 243.5)"/>
</clipPath>
<clipPath id="clip3">
<rect width="15" height="14" fill="white" transform="translate(269.5 243.5)"/>
</clipPath>
<clipPath id="clip4">
<rect width="15" height="14" fill="white" transform="translate(263 754) rotate(90)"/>
</clipPath>
<clipPath id="clip5">
<rect width="15" height="14" fill="white" transform="translate(263 836) rotate(90)"/>
</clipPath>
<clipPath id="clip6">
<rect width="15" height="14" fill="white" transform="translate(251.5 243.5)"/>
</clipPath>
</defs>
</svg>
