<svg width="422" height="2413" viewBox="0 0 422 2413" fill="none" xmlns="http://www.w3.org/2000/svg">
<rect x="129.5" y="60.5" width="292" height="2352" fill="#EDDEB7" stroke="black"/>
<rect x="320.5" y="0.5" width="101" height="197" fill="#C4C4C4" stroke="black"/>
<rect x="320.5" y="197.5" width="101" height="163" fill="#C4C4C4" stroke="black"/>
<rect x="228.5" y="0.5" width="92" height="88" fill="#C4C4C4" stroke="black"/>
<rect x="228.5" y="88.5" width="92" height="27" fill="#C4C4C4" stroke="black"/>
<rect x="228.5" y="115.5" width="46" height="50" fill="#C4C4C4" stroke="black"/>
<rect x="274.5" y="115.5" width="46" height="50" fill="#C4C4C4" stroke="black"/>
<rect x="168.5" y="80.5" width="36" height="38" fill="#C4C4C4" stroke="black"/>
<rect x="149.5" y="80.5" width="19" height="38" fill="#C4C4C4" stroke="black"/>
<rect x="129.5" y="80.5" width="20" height="38" fill="#C4C4C4" stroke="black"/>
<rect x="129.5" y="118.5" width="75" height="46" fill="#C4C4C4" stroke="black"/>
<rect x="274.5" y="222.5" width="46" height="46" fill="#C4C4C4" stroke="black"/>
<rect x="228.5" y="268.5" width="92" height="53" fill="#C4C4C4" stroke="black"/>
<rect x="228.5" y="321.5" width="31" height="41" fill="#8DEB61"/>
<rect x="228.5" y="321.5" width="31" height="41" fill="#8DEB61"/>
<rect x="228.5" y="321.5" width="31" height="41" fill="#8DEB61"/>
<rect x="228.5" y="321.5" width="31" height="41" fill="#8DEB61"/>
<rect x="228.5" y="321.5" width="31" height="41" stroke="black"/>
<rect x="259.5" y="321.5" width="31" height="41" fill="#8DEB61" stroke="black"/>
<rect x="290.5" y="321.5" width="30" height="41" fill="#8DEB61" stroke="black"/>
<rect x="228.5" y="362.5" width="92" height="28" fill="#8DEB61" stroke="black"/>
<mask id="path-18-inside-1" fill="white">
<path fill-rule="evenodd" clip-rule="evenodd" d="M422 360H320V434.556H269V494H320H422V434.556V360Z"/>
</mask>
<path fill-rule="evenodd" clip-rule="evenodd" d="M422 360H320V434.556H269V494H320H422V434.556V360Z" fill="#C4C4C4"/>
<path d="M320 360V359H319V360H320ZM422 360H423V359H422V360ZM320 434.556V435.556H321V434.556H320ZM269 434.556V433.556H268V434.556H269ZM269 494H268V495H269V494ZM422 494V495H423V494H422ZM320 361H422V359H320V361ZM321 434.556V360H319V434.556H321ZM269 435.556H320V433.556H269V435.556ZM270 494V434.556H268V494H270ZM320 493H269V495H320V493ZM422 493H320V495H422V493ZM421 434.556V494H423V434.556H421ZM421 360V434.556H423V360H421Z" fill="black" mask="url(#path-18-inside-1)"/>
<rect x="228.5" y="390.5" width="92" height="45" fill="#8DEB61" stroke="black"/>
<rect x="228.5" y="514.5" width="52" height="48" fill="#C4C4C4" stroke="black"/>
<rect x="228.5" y="562.5" width="52" height="30" fill="#C4C4C4" stroke="black"/>
<rect x="129.5" y="2349.5" width="46" height="63" fill="#C4C4C4" stroke="black"/>
<rect x="175.5" y="2349.5" width="51" height="63" fill="#C4C4C4" stroke="black"/>
<rect x="226.5" y="2341.5" width="55" height="71" fill="#C4C4C4" stroke="black"/>
<rect x="228.5" y="2236.5" width="53" height="66" fill="#C4C4C4" stroke="black"/>
<rect x="129.5" y="1917.5" width="56" height="162" fill="#C4C4C4" stroke="black"/>
<rect x="0.5" y="1786.5" width="179" height="73" fill="#C4C4C4" stroke="black"/>
<rect x="129.5" y="831.5" width="56" height="163" fill="#C4C4C4" stroke="black"/>
<rect x="228.5" y="1579.5" width="52" height="49" fill="#C4C4C4" stroke="black"/>
<rect x="228.5" y="1628.5" width="52" height="49" fill="#C4C4C4" stroke="black"/>
<rect x="228.5" y="1874.5" width="94" height="56" fill="#C4C4C4" stroke="black"/>
<rect x="228.5" y="1930.5" width="94" height="43" fill="#C4C4C4" stroke="black"/>
<mask id="path-34-inside-2" fill="white">
<path fill-rule="evenodd" clip-rule="evenodd" d="M280 493H269V515H280V593H422V515V493H280Z"/>
</mask>
<path fill-rule="evenodd" clip-rule="evenodd" d="M280 493H269V515H280V593H422V515V493H280Z" fill="#C4C4C4"/>
<path d="M269 493V492H268V493H269ZM269 515H268V516H269V515ZM280 515H281V514H280V515ZM280 593H279V594H280V593ZM422 593V594H423V593H422ZM422 493H423V492H422V493ZM269 494H280V492H269V494ZM270 515V493H268V515H270ZM280 514H269V516H280V514ZM281 593V515H279V593H281ZM422 592H280V594H422V592ZM421 515V593H423V515H421ZM421 493V515H423V493H421ZM280 494H422V492H280V494Z" fill="black" mask="url(#path-34-inside-2)"/>
<mask id="path-36-inside-3" fill="white">
<path fill-rule="evenodd" clip-rule="evenodd" d="M422 592H281V646.551H269V691H281H422V646.551V592Z"/>
</mask>
<path fill-rule="evenodd" clip-rule="evenodd" d="M422 592H281V646.551H269V691H281H422V646.551V592Z" fill="#C4C4C4"/>
<path d="M281 592V591H280V592H281ZM422 592H423V591H422V592ZM281 646.551V647.551H282V646.551H281ZM269 646.551V645.551H268V646.551H269ZM269 691H268V692H269V691ZM422 691V692H423V691H422ZM281 593H422V591H281V593ZM282 646.551V592H280V646.551H282ZM269 647.551H281V645.551H269V647.551ZM270 691V646.551H268V691H270ZM281 690H269V692H281V690ZM422 690H281V692H422V690ZM421 646.551V691H423V646.551H421ZM421 592V646.551H423V592H421Z" fill="black" mask="url(#path-36-inside-3)"/>
<mask id="path-38-inside-4" fill="white">
<path fill-rule="evenodd" clip-rule="evenodd" d="M280 690H269V724H280V823H422V724V690H280Z"/>
</mask>
<path fill-rule="evenodd" clip-rule="evenodd" d="M280 690H269V724H280V823H422V724V690H280Z" fill="#C4C4C4"/>
<path d="M269 690V689H268V690H269ZM269 724H268V725H269V724ZM280 724H281V723H280V724ZM280 823H279V824H280V823ZM422 823V824H423V823H422ZM422 690H423V689H422V690ZM269 691H280V689H269V691ZM270 724V690H268V724H270ZM280 723H269V725H280V723ZM281 823V724H279V823H281ZM422 822H280V824H422V822ZM421 724V823H423V724H421ZM421 690V724H423V690H421ZM280 691H422V689H280V691Z" fill="black" mask="url(#path-38-inside-4)"/>
<mask id="path-40-inside-5" fill="white">
<path fill-rule="evenodd" clip-rule="evenodd" d="M422 822H321V979H269V1020H321H421H422V822Z"/>
</mask>
<path fill-rule="evenodd" clip-rule="evenodd" d="M422 822H321V979H269V1020H321H421H422V822Z" fill="#C4C4C4"/>
<path d="M321 822V821H320V822H321ZM422 822H423V821H422V822ZM321 979V980H322V979H321ZM269 979V978H268V979H269ZM269 1020H268V1021H269V1020ZM422 1020V1021H423V1020H422ZM321 823H422V821H321V823ZM322 979V822H320V979H322ZM269 980H321V978H269V980ZM270 1020V979H268V1020H270ZM321 1019H269V1021H321V1019ZM421 1019H321V1021H421V1019ZM422 1019H421V1021H422V1019ZM421 822V1020H423V822H421Z" fill="black" mask="url(#path-40-inside-5)"/>
<mask id="path-42-inside-6" fill="white">
<path fill-rule="evenodd" clip-rule="evenodd" d="M422 1019H282V1152.81H269V1185H282H422V1152.81V1019Z"/>
</mask>
<path fill-rule="evenodd" clip-rule="evenodd" d="M422 1019H282V1152.81H269V1185H282H422V1152.81V1019Z" fill="#C4C4C4"/>
<path d="M282 1019V1018H281V1019H282ZM422 1019H423V1018H422V1019ZM282 1152.81V1153.81H283V1152.81H282ZM269 1152.81V1151.81H268V1152.81H269ZM269 1185H268V1186H269V1185ZM422 1185V1186H423V1185H422ZM282 1020H422V1018H282V1020ZM283 1152.81V1019H281V1152.81H283ZM269 1153.81H282V1151.81H269V1153.81ZM270 1185V1152.81H268V1185H270ZM282 1184H269V1186H282V1184ZM422 1184H282V1186H422V1184ZM421 1152.81V1185H423V1152.81H421ZM421 1019V1152.81H423V1019H421Z" fill="black" mask="url(#path-42-inside-6)"/>
<rect x="227.5" y="1104.5" width="55" height="49" fill="#C4C4C4" stroke="black"/>
<rect x="227.5" y="1019.5" width="55" height="30" fill="#C4C4C4" stroke="black"/>
<rect x="227.5" y="1049.5" width="55" height="21" fill="#C4C4C4" stroke="black"/>
<mask id="path-47-inside-7" fill="white">
<path fill-rule="evenodd" clip-rule="evenodd" d="M274 1184H269V1264H274V1348H422V1264V1184H274Z"/>
</mask>
<path fill-rule="evenodd" clip-rule="evenodd" d="M274 1184H269V1264H274V1348H422V1264V1184H274Z" fill="#C4C4C4"/>
<path d="M269 1184V1183H268V1184H269ZM269 1264H268V1265H269V1264ZM274 1264H275V1263H274V1264ZM274 1348H273V1349H274V1348ZM422 1348V1349H423V1348H422ZM422 1184H423V1183H422V1184ZM269 1185H274V1183H269V1185ZM270 1264V1184H268V1264H270ZM274 1263H269V1265H274V1263ZM275 1348V1264H273V1348H275ZM422 1347H274V1349H422V1347ZM421 1264V1348H423V1264H421ZM421 1184V1264H423V1184H421ZM274 1185H422V1183H274V1185Z" fill="black" mask="url(#path-47-inside-7)"/>
<mask id="path-49-inside-8" fill="white">
<path fill-rule="evenodd" clip-rule="evenodd" d="M281 2302H269V2342H281V2413H422V2342V2302H281Z"/>
</mask>
<path fill-rule="evenodd" clip-rule="evenodd" d="M281 2302H269V2342H281V2413H422V2342V2302H281Z" fill="#C4C4C4"/>
<path d="M269 2302V2301H268V2302H269ZM269 2342H268V2343H269V2342ZM281 2342H282V2341H281V2342ZM281 2413H280V2414H281V2413ZM422 2413V2414H423V2413H422ZM422 2302H423V2301H422V2302ZM269 2303H281V2301H269V2303ZM270 2342V2302H268V2342H270ZM281 2341H269V2343H281V2341ZM282 2413V2342H280V2413H282ZM422 2412H281V2414H422V2412ZM421 2342V2413H423V2342H421ZM421 2302V2342H423V2302H421ZM281 2303H422V2301H281V2303Z" fill="black" mask="url(#path-49-inside-8)"/>
<mask id="path-51-inside-9" fill="white">
<path fill-rule="evenodd" clip-rule="evenodd" d="M281 2170H269V2237H281V2303H422V2237V2170H281Z"/>
</mask>
<path fill-rule="evenodd" clip-rule="evenodd" d="M281 2170H269V2237H281V2303H422V2237V2170H281Z" fill="#C4C4C4"/>
<path d="M269 2170V2169H268V2170H269ZM269 2237H268V2238H269V2237ZM281 2237H282V2236H281V2237ZM281 2303H280V2304H281V2303ZM422 2303V2304H423V2303H422ZM422 2170H423V2169H422V2170ZM269 2171H281V2169H269V2171ZM270 2237V2170H268V2237H270ZM281 2236H269V2238H281V2236ZM282 2303V2237H280V2303H282ZM422 2302H281V2304H422V2302ZM421 2237V2303H423V2237H421ZM421 2170V2237H423V2170H421ZM281 2171H422V2169H281V2171Z" fill="black" mask="url(#path-51-inside-9)"/>
<mask id="path-53-inside-10" fill="white">
<path fill-rule="evenodd" clip-rule="evenodd" d="M422 2049H280V2104H269V2171H280H421H422V2049Z"/>
</mask>
<path fill-rule="evenodd" clip-rule="evenodd" d="M422 2049H280V2104H269V2171H280H421H422V2049Z" fill="#C4C4C4"/>
<path d="M280 2049V2048H279V2049H280ZM422 2049H423V2048H422V2049ZM280 2104V2105H281V2104H280ZM269 2104V2103H268V2104H269ZM269 2171H268V2172H269V2171ZM422 2171V2172H423V2171H422ZM280 2050H422V2048H280V2050ZM281 2104V2049H279V2104H281ZM269 2105H280V2103H269V2105ZM270 2171V2104H268V2171H270ZM280 2170H269V2172H280V2170ZM421 2170H280V2172H421V2170ZM422 2170H421V2172H422V2170ZM421 2049V2171H423V2049H421Z" fill="black" mask="url(#path-53-inside-10)"/>
<mask id="path-55-inside-11" fill="white">
<path fill-rule="evenodd" clip-rule="evenodd" d="M322 1841H269V1875H322V2050H422V1875V1841H322Z"/>
</mask>
<path fill-rule="evenodd" clip-rule="evenodd" d="M322 1841H269V1875H322V2050H422V1875V1841H322Z" fill="#C4C4C4"/>
<path d="M269 1841V1840H268V1841H269ZM269 1875H268V1876H269V1875ZM322 1875H323V1874H322V1875ZM322 2050H321V2051H322V2050ZM422 2050V2051H423V2050H422ZM422 1841H423V1840H422V1841ZM269 1842H322V1840H269V1842ZM270 1875V1841H268V1875H270ZM322 1874H269V1876H322V1874ZM323 2050V1875H321V2050H323ZM422 2049H322V2051H422V2049ZM421 1875V2050H423V1875H421ZM421 1841V1875H423V1841H421ZM322 1842H422V1840H322V1842Z" fill="black" mask="url(#path-55-inside-11)"/>
<rect x="262.5" y="2006.5" width="26" height="43" fill="#C4C4C4" stroke="black"/>
<rect x="288.5" y="2022.5" width="17" height="27" fill="#C4C4C4" stroke="black"/>
<rect x="305.5" y="2022.5" width="17" height="27" fill="#C4C4C4" stroke="black"/>
<mask id="path-60-inside-12" fill="white">
<path fill-rule="evenodd" clip-rule="evenodd" d="M422 1347H321V1507.8H269V1547H321H422V1507.8V1347Z"/>
</mask>
<path fill-rule="evenodd" clip-rule="evenodd" d="M422 1347H321V1507.8H269V1547H321H422V1507.8V1347Z" fill="#C4C4C4"/>
<path d="M321 1347V1346H320V1347H321ZM422 1347H423V1346H422V1347ZM321 1507.8V1508.8H322V1507.8H321ZM269 1507.8V1506.8H268V1507.8H269ZM269 1547H268V1548H269V1547ZM422 1547V1548H423V1547H422ZM321 1348H422V1346H321V1348ZM322 1507.8V1347H320V1507.8H322ZM269 1508.8H321V1506.8H269V1508.8ZM270 1547V1507.8H268V1547H270ZM321 1546H269V1548H321V1546ZM422 1546H321V1548H422V1546ZM421 1507.8V1547H423V1507.8H421ZM421 1347V1507.8H423V1347H421Z" fill="black" mask="url(#path-60-inside-12)"/>
<mask id="path-62-inside-13" fill="white">
<path fill-rule="evenodd" clip-rule="evenodd" d="M422 1677H280V1786H269V1842H280H422V1786V1677Z"/>
</mask>
<path fill-rule="evenodd" clip-rule="evenodd" d="M422 1677H280V1786H269V1842H280H422V1786V1677Z" fill="#C4C4C4"/>
<path d="M280 1677V1676H279V1677H280ZM422 1677H423V1676H422V1677ZM280 1786V1787H281V1786H280ZM269 1786V1785H268V1786H269ZM269 1842H268V1843H269V1842ZM422 1842V1843H423V1842H422ZM280 1678H422V1676H280V1678ZM281 1786V1677H279V1786H281ZM269 1787H280V1785H269V1787ZM270 1842V1786H268V1842H270ZM280 1841H269V1843H280V1841ZM422 1841H280V1843H422V1841ZM421 1786V1842H423V1786H421ZM421 1677V1786H423V1677H421Z" fill="black" mask="url(#path-62-inside-13)"/>
<rect x="228.5" y="2229.5" width="41" height="7" fill="#C4C4C4" stroke="black"/>
<rect x="228.5" y="2095.5" width="41" height="8" fill="#C4C4C4" stroke="black"/>
<mask id="path-66-inside-14" fill="white">
<path fill-rule="evenodd" clip-rule="evenodd" d="M269 2049H228V2096H269V2105H281V2096V2049H269Z"/>
</mask>
<path fill-rule="evenodd" clip-rule="evenodd" d="M269 2049H228V2096H269V2105H281V2096V2049H269Z" fill="#C4C4C4"/>
<path d="M228 2049V2048H227V2049H228ZM228 2096H227V2097H228V2096ZM269 2096H270V2095H269V2096ZM269 2105H268V2106H269V2105ZM281 2105V2106H282V2105H281ZM281 2049H282V2048H281V2049ZM228 2050H269V2048H228V2050ZM229 2096V2049H227V2096H229ZM269 2095H228V2097H269V2095ZM270 2105V2096H268V2105H270ZM281 2104H269V2106H281V2104ZM280 2096V2105H282V2096H280ZM280 2049V2096H282V2049H280ZM269 2050H281V2048H269V2050Z" fill="black" mask="url(#path-66-inside-14)"/>
<mask id="path-68-inside-15" fill="white">
<path fill-rule="evenodd" clip-rule="evenodd" d="M280 1546H269V1580.26H280V1678H422V1580.26V1546H280Z"/>
</mask>
<path fill-rule="evenodd" clip-rule="evenodd" d="M280 1546H269V1580.26H280V1678H422V1580.26V1546H280Z" fill="#C4C4C4"/>
<path d="M269 1546V1545H268V1546H269ZM269 1580.26H268V1581.26H269V1580.26ZM280 1580.26H281V1579.26H280V1580.26ZM280 1678H279V1679H280V1678ZM422 1678V1679H423V1678H422ZM422 1546H423V1545H422V1546ZM269 1547H280V1545H269V1547ZM270 1580.26V1546H268V1580.26H270ZM280 1579.26H269V1581.26H280V1579.26ZM281 1678V1580.26H279V1678H281ZM422 1677H280V1679H422V1677ZM421 1580.26V1678H423V1580.26H421ZM421 1546V1580.26H423V1546H421ZM280 1547H422V1545H280V1547Z" fill="black" mask="url(#path-68-inside-15)"/>
<rect x="228.5" y="1347.5" width="46" height="45" fill="#C4C4C4" stroke="black"/>
<rect x="228.5" y="1263.5" width="46" height="48" fill="#C4C4C4" stroke="black"/>
<rect x="228.5" y="1255.5" width="41" height="8" fill="#C4C4C4" stroke="black"/>
<rect x="274.5" y="1347.5" width="47" height="83" fill="#C4C4C4" stroke="black"/>
<rect x="240.5" y="1392.5" width="34" height="38" fill="#C4C4C4" stroke="black"/>
<rect x="228.5" y="1430.5" width="93" height="33" fill="#C4C4C4" stroke="black"/>
<rect x="238.5" y="1463.5" width="83" height="45" fill="#C4C4C4" stroke="black"/>
<rect x="228.5" y="1463.5" width="10" height="27" fill="#C4C4C4" stroke="black"/>
<rect x="228.5" y="1490.5" width="10" height="17" fill="#C4C4C4" stroke="black"/>
<mask id="path-79-inside-16" fill="white">
<path fill-rule="evenodd" clip-rule="evenodd" d="M247 1677H228V1711H247V1718H281V1677H280H247Z"/>
</mask>
<path fill-rule="evenodd" clip-rule="evenodd" d="M247 1677H228V1711H247V1718H281V1677H280H247Z" fill="#C4C4C4"/>
<path d="M228 1677V1676H227V1677H228ZM228 1711H227V1712H228V1711ZM247 1711H248V1710H247V1711ZM247 1718H246V1719H247V1718ZM281 1718V1719H282V1718H281ZM281 1677H282V1676H281V1677ZM228 1678H247V1676H228V1678ZM229 1711V1677H227V1711H229ZM247 1710H228V1712H247V1710ZM248 1718V1711H246V1718H248ZM281 1717H247V1719H281V1717ZM280 1677V1718H282V1677H280ZM280 1678H281V1676H280V1678ZM247 1678H280V1676H247V1678Z" fill="black" mask="url(#path-79-inside-16)"/>
<rect x="228.5" y="1778.5" width="41" height="8" fill="#C4C4C4" stroke="black"/>
<mask id="path-82-inside-17" fill="white">
<path fill-rule="evenodd" clip-rule="evenodd" d="M247 1738H269H281V1747V1778V1779V1787H269V1779H228V1747H247V1738Z"/>
</mask>
<path fill-rule="evenodd" clip-rule="evenodd" d="M247 1738H269H281V1747V1778V1779V1787H269V1779H228V1747H247V1738Z" fill="#C4C4C4"/>
<path d="M247 1738V1737H246V1738H247ZM281 1738H282V1737H281V1738ZM281 1787V1788H282V1787H281ZM269 1787H268V1788H269V1787ZM269 1779H270V1778H269V1779ZM228 1779H227V1780H228V1779ZM228 1747V1746H227V1747H228ZM247 1747V1748H248V1747H247ZM269 1737H247V1739H269V1737ZM269 1739H281V1737H269V1739ZM280 1738V1747H282V1738H280ZM280 1747V1778H282V1747H280ZM280 1778V1779H282V1778H280ZM280 1779V1787H282V1779H280ZM281 1786H269V1788H281V1786ZM270 1787V1779H268V1787H270ZM228 1780H269V1778H228V1780ZM227 1747V1779H229V1747H227ZM247 1746H228V1748H247V1746ZM246 1738V1747H248V1738H246Z" fill="black" mask="url(#path-82-inside-17)"/>
<rect x="247.5" y="1717.5" width="33" height="21" fill="#C4C4C4" stroke="black"/>
<rect x="246.5" y="1311.5" width="28" height="36" fill="#C4C4C4" stroke="black"/>
<rect x="228.5" y="2006.5" width="34" height="43" fill="#C4C4C4" stroke="black"/>
<mask id="path-87-inside-18" fill="white">
<path fill-rule="evenodd" clip-rule="evenodd" d="M288 1973H228V2007H288V2023H323V2007V1973H288Z"/>
</mask>
<path fill-rule="evenodd" clip-rule="evenodd" d="M288 1973H228V2007H288V2023H323V2007V1973H288Z" fill="#C4C4C4"/>
<path d="M228 1973V1972H227V1973H228ZM228 2007H227V2008H228V2007ZM288 2007H289V2006H288V2007ZM288 2023H287V2024H288V2023ZM323 2023V2024H324V2023H323ZM323 1973H324V1972H323V1973ZM228 1974H288V1972H228V1974ZM229 2007V1973H227V2007H229ZM288 2006H228V2008H288V2006ZM289 2023V2007H287V2023H289ZM323 2022H288V2024H323V2022ZM322 2007V2023H324V2007H322ZM322 1973V2007H324V1973H322ZM288 1974H323V1972H288V1974Z" fill="black" mask="url(#path-87-inside-18)"/>
<rect x="228.5" y="935.5" width="9" height="29" fill="#C4C4C4" stroke="black"/>
<rect x="228.5" y="964.5" width="9" height="15" fill="#C4C4C4" stroke="black"/>
<rect x="237.5" y="935.5" width="84" height="44" fill="#C4C4C4" stroke="black"/>
<rect x="228.5" y="902.5" width="93" height="33" fill="#C4C4C4" stroke="black"/>
<rect x="239.5" y="863.5" width="37" height="39" fill="#C4C4C4" stroke="black"/>
<rect x="228.5" y="822.5" width="48" height="41" fill="#C4C4C4" stroke="black"/>
<rect x="276.5" y="822.5" width="45" height="80" fill="#C4C4C4" stroke="black"/>
<rect x="245.5" y="786.5" width="35" height="36" fill="#C4C4C4" stroke="black"/>
<mask id="path-97-inside-19" fill="white">
<path fill-rule="evenodd" clip-rule="evenodd" d="M281 723H269V735H228V787H269H281V735V723Z"/>
</mask>
<path fill-rule="evenodd" clip-rule="evenodd" d="M281 723H269V735H228V787H269H281V735V723Z" fill="#C4C4C4"/>
<path d="M269 723V722H268V723H269ZM281 723H282V722H281V723ZM269 735V736H270V735H269ZM228 735V734H227V735H228ZM228 787H227V788H228V787ZM281 787V788H282V787H281ZM269 724H281V722H269V724ZM270 735V723H268V735H270ZM228 736H269V734H228V736ZM229 787V735H227V787H229ZM269 786H228V788H269V786ZM281 786H269V788H281V786ZM280 735V787H282V735H280ZM280 723V735H282V723H280Z" fill="black" mask="url(#path-97-inside-19)"/>
<rect x="228.5" y="727.5" width="41" height="8" fill="#C4C4C4" stroke="black"/>
<rect x="228.5" y="639.5" width="41" height="8" fill="#C4C4C4" stroke="black"/>
<mask id="path-101-inside-20" fill="white">
<path fill-rule="evenodd" clip-rule="evenodd" d="M269 592H228V640H269V647H282V592H281H269Z"/>
</mask>
<path fill-rule="evenodd" clip-rule="evenodd" d="M269 592H228V640H269V647H282V592H281H269Z" fill="#C4C4C4"/>
<path d="M228 592V591H227V592H228ZM228 640H227V641H228V640ZM269 640H270V639H269V640ZM269 647H268V648H269V647ZM282 647V648H283V647H282ZM282 592H283V591H282V592ZM228 593H269V591H228V593ZM229 640V592H227V640H229ZM269 639H228V641H269V639ZM270 647V640H268V647H270ZM282 646H269V648H282V646ZM281 592V647H283V592H281ZM281 593H282V591H281V593ZM269 593H281V591H269V593Z" fill="black" mask="url(#path-101-inside-20)"/>
<rect x="228.5" y="222.5" width="46" height="46" fill="#C4C4C4" stroke="black"/>
</svg>
