<svg width="1437" height="511" viewBox="0 0 1437 511" fill="none" xmlns="http://www.w3.org/2000/svg">
<line x1="1.49976" y1="73.9845" x2="8.70717" y2="306.016" stroke="black"/>
<line x1="8.99157" y1="305.5" x2="187.991" y2="302.483" stroke="black"/>
<line x1="0.808976" y1="74.5379" x2="179.809" y2="0.537929" stroke="black"/>
<line x1="179.5" y1="0.988375" x2="186.5" y2="301.988" stroke="black"/>
<line x1="179.082" y1="0.506757" x2="468.082" y2="48.5068" stroke="black"/>
<line x1="467.5" y1="48" x2="467.5" y2="205" stroke="black"/>
<line x1="467" y1="204.5" x2="513" y2="204.5" stroke="black"/>
<line x1="512.5" y1="205" x2="512.5" y2="54" stroke="black"/>
<line x1="513.096" y1="54.4907" x2="467.096" y2="63.4907" stroke="black"/>
<line x1="186.995" y1="302.5" x2="1319.99" y2="290.5" stroke="black"/>
<line x1="1319.5" y1="79" x2="1319.5" y2="291" stroke="black"/>
<line x1="1227.21" y1="37.5469" x2="1317.21" y2="79.5469" stroke="black"/>
<line x1="1069.5" y1="57" x2="1069.5" y2="196" stroke="black"/>
<line x1="1066.94" y1="57.5038" x2="1227.94" y2="37.5038" stroke="black"/>
<line x1="1177.5" y1="86" x2="1177.5" y2="130" stroke="black"/>
<line x1="1176.97" y1="129.501" x2="1227.97" y2="126.501" stroke="black"/>
<line x1="1227.13" y1="126.517" x2="1242.13" y2="130.517" stroke="black"/>
<line x1="1241.5" y1="85" x2="1241.5" y2="131" stroke="black"/>
<line x1="1227.24" y1="77.5588" x2="1242.24" y2="85.5588" stroke="black"/>
<line x1="1176.92" y1="85.506" x2="1227.92" y2="77.506" stroke="black"/>
<line x1="1230.5" y1="79" x2="1230.5" y2="128" stroke="black"/>
<line x1="1223.5" y1="78" x2="1223.5" y2="127" stroke="black"/>
<line x1="1227.5" y1="37" x2="1227.5" y2="78" stroke="black"/>
<line x1="1227.5" y1="127.005" x2="1226.5" y2="218.005" stroke="black"/>
<line x1="896.5" y1="123" x2="896.5" y2="229" stroke="black"/>
<line x1="896.022" y1="228.5" x2="919.022" y2="229.5" stroke="black"/>
<line x1="918.5" y1="176" x2="918.5" y2="229" stroke="black"/>
<line x1="897" y1="175.5" x2="918" y2="175.5" stroke="black"/>
<line x1="512.087" y1="54.5077" x2="896.087" y2="122.508" stroke="black"/>
<line x1="285.5" y1="300.993" x2="287.528" y2="447.993" stroke="black"/>
<line x1="294.5" y1="300.993" x2="296.514" y2="447.993" stroke="black"/>
<line x1="413.5" y1="299.992" x2="415.5" y2="432.992" stroke="black"/>
<line x1="422.5" y1="299.992" x2="424.5" y2="432.992" stroke="black"/>
<line x1="520.5" y1="299" x2="520.5" y2="423" stroke="black"/>
<line x1="528.5" y1="299" x2="528.5" y2="423" stroke="black"/>
<line x1="528" y1="343.5" x2="731" y2="343.5" stroke="black"/>
<line x1="730.973" y1="343.501" x2="948.973" y2="331.501" stroke="black"/>
<line x1="948.5" y1="332" x2="948.5" y2="411" stroke="black"/>
<line x1="730.925" y1="443.506" x2="948.925" y2="410.506" stroke="black"/>
<line x1="731.5" y1="382" x2="731.5" y2="444" stroke="black"/>
<line x1="730.948" y1="382.503" x2="768.948" y2="378.503" stroke="black"/>
<line x1="768.5" y1="363" x2="768.5" y2="379" stroke="black"/>
<line x1="731" y1="362.5" x2="769" y2="362.5" stroke="black"/>
<line x1="687.5" y1="363" x2="687.5" y2="380" stroke="black"/>
<line x1="687.033" y1="379.501" x2="732.033" y2="382.501" stroke="black"/>
<line x1="686.989" y1="363.5" x2="731.989" y2="362.5" stroke="black"/>
<line x1="602.038" y1="433.501" x2="732.038" y2="443.501" stroke="black"/>
<line x1="582.5" y1="375" x2="582.5" y2="425" stroke="black"/>
<line x1="582.028" y1="375.501" x2="600.028" y2="376.501" stroke="black"/>
<line x1="599.5" y1="376" x2="599.5" y2="427" stroke="black"/>
<line x1="731.5" y1="444" x2="731.5" y2="478" stroke="black"/>
<line x1="730.905" y1="477.509" x2="948.905" y2="435.509" stroke="black"/>
<line x1="948.5" y1="411" x2="948.5" y2="436" stroke="black"/>
<line x1="747.5" y1="441" x2="747.5" y2="474" stroke="black"/>
<line x1="817.5" y1="430" x2="817.5" y2="461" stroke="black"/>
<line x1="877.5" y1="421" x2="877.5" y2="449" stroke="black"/>
<line x1="931.5" y1="413" x2="931.5" y2="439" stroke="black"/>
<line x1="731.5" y1="362" x2="731.5" y2="383" stroke="black"/>
<line x1="731.5" y1="344" x2="731.5" y2="363" stroke="black"/>
<line x1="602.5" y1="428" x2="602.5" y2="454" stroke="black"/>
<line x1="579.894" y1="432.511" x2="602.894" y2="427.511" stroke="black"/>
<line x1="525.053" y1="426.503" x2="581.053" y2="432.503" stroke="black"/>
<line x1="580.5" y1="433" x2="580.5" y2="448" stroke="black"/>
<line x1="326.5" y1="300.989" x2="329.522" y2="438.989" stroke="black"/>
<line x1="358.5" y1="300.993" x2="360.5" y2="435.993" stroke="black"/>
<line x1="387.5" y1="299.989" x2="390.523" y2="432.988" stroke="black"/>
<line x1="445.5" y1="299.996" x2="446.508" y2="426.996" stroke="black"/>
<line x1="472.5" y1="300" x2="472.5" y2="425" stroke="black"/>
<line x1="471.964" y1="375.501" x2="499.964" y2="373.501" stroke="black"/>
<line x1="499.5" y1="298.996" x2="500.5" y2="421.996" stroke="black"/>
<line x1="294.979" y1="347.5" x2="413.979" y2="342.5" stroke="black"/>
<line x1="422.984" y1="342.5" x2="516.984" y2="339.5" stroke="black"/>
<line x1="422.973" y1="361.501" x2="515.973" y2="356.501" stroke="black"/>
<line x1="295.97" y1="368.501" x2="413.97" y2="361.501" stroke="black"/>
<line x1="483.5" y1="375" x2="483.5" y2="424" stroke="black"/>
<line x1="511.868" y1="506.518" x2="646.868" y2="469.518" stroke="black"/>
<line x1="646.047" y1="469.502" x2="731.047" y2="477.502" stroke="black"/>
<line x1="547.068" y1="440.495" x2="342.068" y2="468.495" stroke="black"/>
<line x1="580.086" y1="448.493" x2="396.086" y2="480.493" stroke="black"/>
<line x1="609.099" y1="454.49" x2="436.099" y2="489.49" stroke="black"/>
<line x1="283.938" y1="456.504" x2="525.938" y2="426.504" stroke="black"/>
<line x1="547.5" y1="440" x2="547.5" y2="448" stroke="black"/>
<line x1="547.015" y1="447.5" x2="580.015" y2="448.5" stroke="black"/>
<line x1="525.5" y1="426" x2="525.5" y2="435" stroke="black"/>
<line x1="534" y1="439.5" x2="548" y2="439.5" stroke="black"/>
<line x1="580.5" y1="448" x2="580.5" y2="455" stroke="black"/>
<line x1="580" y1="454.5" x2="609" y2="454.5" stroke="black"/>
<line x1="608.5" y1="454" x2="608.5" y2="463" stroke="black"/>
<line x1="626.5" y1="463" x2="626.5" y2="469" stroke="black"/>
<line x1="626" y1="469.5" x2="646" y2="469.5" stroke="black"/>
<line x1="493.88" y1="502.515" x2="626.88" y2="469.515" stroke="black"/>
<line x1="608" y1="462.5" x2="627" y2="462.5" stroke="black"/>
<line x1="478.879" y1="499.515" x2="626.879" y2="462.515" stroke="black"/>
<line x1="1094.5" y1="199" x2="1094.5" y2="243" stroke="black"/>
<line x1="1094.04" y1="242.502" x2="1106.04" y2="243.502" stroke="black"/>
<line x1="1106.5" y1="201" x2="1106.5" y2="244" stroke="black"/>
<line x1="1107" y1="201.5" x2="1095" y2="201.5" stroke="black"/>
<line x1="1094.93" y1="199.495" x2="917.933" y2="175.495" stroke="black"/>
<line x1="1177.13" y1="85.5182" x2="1195.13" y2="90.5182" stroke="black"/>
<line x1="1193.95" y1="90.5025" x2="1223.95" y2="87.5025" stroke="black"/>
<line x1="1230.95" y1="86.5021" x2="1241.95" y2="85.5021" stroke="black"/>
<line x1="1194.5" y1="90" x2="1194.5" y2="128" stroke="black"/>
<line x1="1106.07" y1="201.505" x2="1320.07" y2="231.505" stroke="black"/>
<line x1="1228.1" y1="192.51" x2="1319.1" y2="210.51" stroke="black"/>
<line x1="1248.5" y1="196" x2="1248.5" y2="221" stroke="black"/>
<line x1="1265.5" y1="199" x2="1265.5" y2="223" stroke="black"/>
<line x1="1280.5" y1="202" x2="1280.5" y2="225" stroke="black"/>
<line x1="1295.5" y1="205" x2="1295.5" y2="228" stroke="black"/>
<line x1="1308.5" y1="209" x2="1308.5" y2="230" stroke="black"/>
<line x1="528.983" y1="342.5" x2="731.983" y2="335.5" stroke="black"/>
<line x1="730.991" y1="335.5" x2="947.991" y2="331.5" stroke="black"/>
<line x1="1241" y1="305.5" x2="1432" y2="304.5" stroke="black"/>
<line x1="1432.5" y1="305" x2="1432.5" y2="315" stroke="black"/>
<line x1="1248" y1="313.5" x2="1433" y2="314.489" stroke="black"/>
<line x1="1248.5" y1="310" x2="1248.5" y2="347" stroke="black"/>
<line x1="1241.5" y1="306" x2="1241.5" y2="311" stroke="black"/>
<line x1="1436.5" y1="305" x2="1436.5" y2="315" stroke="black"/>
<line x1="1437" y1="304.5" x2="1432" y2="304.5" stroke="black"/>
<line x1="1433" y1="314.5" x2="1437" y2="314.5" stroke="black"/>
<line x1="1263.5" y1="314" x2="1263.5" y2="347" stroke="black"/>
<line x1="1264.5" y1="314" x2="1264.5" y2="347" stroke="black"/>
<line x1="1270.5" y1="314" x2="1270.5" y2="347" stroke="black"/>
<line x1="1271.5" y1="314" x2="1271.5" y2="347" stroke="black"/>
<line x1="1360.5" y1="314" x2="1360.5" y2="333" stroke="black"/>
<line x1="1359.5" y1="314" x2="1359.5" y2="333" stroke="black"/>
<line x1="1367.5" y1="314" x2="1367.5" y2="331" stroke="black"/>
<line x1="1368.5" y1="314" x2="1368.5" y2="330" stroke="black"/>
<line x1="1064.97" y1="310.501" x2="1101.97" y2="308.501" stroke="black"/>
<line x1="1101.5" y1="308.006" x2="1100.5" y2="392.006" stroke="black"/>
<line x1="1064.73" y1="414.579" x2="1100.73" y2="391.579" stroke="black"/>
<line x1="1064.5" y1="310" x2="1064.5" y2="414" stroke="black"/>
<line x1="1075.5" y1="314" x2="1075.5" y2="349" stroke="black"/>
<line x1="1074.85" y1="348.522" x2="1100.85" y2="340.522" stroke="black"/>
<line x1="1074.94" y1="314.503" x2="1101.94" y2="311.503" stroke="black"/>
<line x1="1001.98" y1="416.5" x2="1064.98" y2="414.5" stroke="black"/>
<line x1="864.993" y1="326.5" x2="1013.99" y2="324.487" stroke="black"/>
<line x1="1014.5" y1="311" x2="1014.5" y2="325" stroke="black"/>
<line x1="1014" y1="310.5" x2="1065" y2="310.5" stroke="black"/>
<line x1="973.135" y1="410.481" x2="948.135" y2="417.481" stroke="black"/>
<line x1="989.151" y1="413.477" x2="948.151" y2="426.477" stroke="black"/>
<line x1="973.5" y1="431" x2="973.5" y2="437" stroke="black"/>
<line x1="1002.5" y1="432" x2="1002.5" y2="438" stroke="black"/>
<line x1="1006.5" y1="432" x2="1006.5" y2="438" stroke="black"/>
<line x1="1033.5" y1="433" x2="1033.5" y2="439" stroke="black"/>
<line x1="1038.5" y1="433" x2="1038.5" y2="439" stroke="black"/>
<line x1="1064.5" y1="435" x2="1064.5" y2="441" stroke="black"/>
<line x1="968.814" y1="430.536" x2="1003.81" y2="416.536" stroke="black"/>
<line x1="969" y1="430.5" x2="948" y2="430.5" stroke="black"/>
<line x1="968.5" y1="431" x2="968.5" y2="437" stroke="black"/>
<line x1="973.5" y1="410" x2="973.5" y2="414" stroke="black"/>
<line x1="973" y1="413.5" x2="989" y2="413.5" stroke="black"/>
<line x1="988.5" y1="413" x2="988.5" y2="417" stroke="black"/>
<line x1="989" y1="416.5" x2="1003" y2="416.5" stroke="black"/>
<line x1="948.835" y1="430.528" x2="988.835" y2="416.528" stroke="black"/>
<line x1="948.848" y1="421.524" x2="973.848" y2="413.524" stroke="black"/>
<line x1="961" y1="410.5" x2="974" y2="410.5" stroke="black"/>
<line x1="961.5" y1="407" x2="961.5" y2="410" stroke="black"/>
<line x1="961.112" y1="407.487" x2="948.112" y2="410.487" stroke="black"/>
<line x1="948.888" y1="413.513" x2="961.888" y2="410.513" stroke="black"/>
<line x1="365.926" y1="474.505" x2="546.926" y2="447.505" stroke="black"/>
<line x1="417.907" y1="485.509" x2="580.907" y2="454.509" stroke="black"/>
<line x1="460.89" y1="495.512" x2="607.891" y2="462.512" stroke="black"/>
<line x1="246.108" y1="447.512" x2="530.108" y2="510.512" stroke="black"/>
<line x1="309.938" y1="461.504" x2="525.938" y2="434.504" stroke="black"/>
<line x1="615.5" y1="298" x2="615.5" y2="340" stroke="black"/>
<line x1="623.5" y1="298" x2="623.5" y2="339" stroke="black"/>
<line x1="697.5" y1="297" x2="697.5" y2="337" stroke="black"/>
<line x1="705.5" y1="297" x2="705.5" y2="336" stroke="black"/>
<line x1="770.5" y1="296" x2="770.5" y2="335" stroke="black"/>
<line x1="777.5" y1="296" x2="777.5" y2="335" stroke="black"/>
<line x1="831.5" y1="296" x2="831.5" y2="334" stroke="black"/>
<line x1="837.5" y1="296" x2="837.5" y2="334" stroke="black"/>
<line x1="887.5" y1="295" x2="887.5" y2="326" stroke="black"/>
<line x1="892.5" y1="295" x2="892.5" y2="326" stroke="black"/>
<line x1="936.5" y1="295" x2="936.5" y2="325" stroke="black"/>
<line x1="941.5" y1="295" x2="941.5" y2="325" stroke="black"/>
<line x1="980.5" y1="294" x2="980.5" y2="325" stroke="black"/>
<line x1="985.5" y1="294" x2="985.5" y2="325" stroke="black"/>
<line x1="1019.5" y1="294" x2="1019.5" y2="310" stroke="black"/>
<line x1="1024.5" y1="294" x2="1024.5" y2="310" stroke="black"/>
<line x1="1054.5" y1="294" x2="1054.5" y2="309" stroke="black"/>
<line x1="1059.5" y1="294" x2="1059.5" y2="308" stroke="black"/>
<line x1="1319.5" y1="291" x2="1319.5" y2="305" stroke="black"/>
<line x1="1316.5" y1="291" x2="1316.5" y2="305" stroke="black"/>
<line x1="1307.5" y1="291" x2="1307.5" y2="305" stroke="black"/>
<line x1="1310.5" y1="291" x2="1310.5" y2="305" stroke="black"/>
<line x1="1293.5" y1="291" x2="1293.5" y2="305" stroke="black"/>
<line x1="1296.5" y1="291" x2="1296.5" y2="305" stroke="black"/>
<line x1="1279.5" y1="291" x2="1279.5" y2="305" stroke="black"/>
<line x1="1282.5" y1="291" x2="1282.5" y2="305" stroke="black"/>
<line x1="1263.5" y1="291" x2="1263.5" y2="305" stroke="black"/>
<line x1="1266.5" y1="291" x2="1266.5" y2="305" stroke="black"/>
<line x1="1246.5" y1="291" x2="1246.5" y2="305" stroke="black"/>
<line x1="1249.5" y1="291" x2="1249.5" y2="305" stroke="black"/>
<line x1="67.0498" y1="421.502" x2="287.05" y2="443.502" stroke="black"/>
<line x1="63.4997" y1="303.983" x2="67.4997" y2="420.983" stroke="black"/>
<path d="M287 447.5L289.5 448.5L292 449L294.5 448.5L297 447.5" stroke="black"/>
<line x1="528.046" y1="420.502" x2="603.046" y2="427.502" stroke="black"/>
<line x1="551.5" y1="372" x2="551.5" y2="409" stroke="black"/>
<line x1="558.5" y1="373" x2="558.5" y2="409" stroke="black"/>
<line x1="551.062" y1="408.504" x2="559.062" y2="409.504" stroke="black"/>
<line x1="646.047" y1="475.502" x2="731.047" y2="483.502" stroke="black"/>
<line x1="730.897" y1="483.511" x2="954.897" y2="436.511" stroke="black"/>
<line x1="948.021" y1="435.5" x2="1065.02" y2="440.5" stroke="black"/>
<line x1="646.5" y1="470" x2="646.5" y2="476" stroke="black"/>
<line x1="528.858" y1="510.521" x2="646.858" y2="475.521" stroke="black"/>
<line x1="525" y1="434.5" x2="534" y2="434.5" stroke="black"/>
<line x1="533.5" y1="434" x2="533.5" y2="440" stroke="black"/>
<line x1="268.5" y1="301.986" x2="272.5" y2="441.986" stroke="black"/>
<line x1="250.5" y1="301.985" x2="254.529" y2="439.985" stroke="black"/>
<line x1="233.5" y1="301.985" x2="237.5" y2="438.985" stroke="black"/>
<line x1="213.5" y1="301.985" x2="217.5" y2="435.985" stroke="black"/>
<line x1="277.955" y1="348.131" x2="286.013" y2="347.869" stroke="black"/>
<line x1="279" y1="348.5" x2="195" y2="348.5" stroke="black"/>
<line x1="278.938" y1="371.504" x2="286.938" y2="370.504" stroke="black"/>
<line x1="195.018" y1="368.5" x2="279.018" y2="371.5" stroke="black"/>
<line x1="194.5" y1="301.996" x2="195.508" y2="433.996" stroke="black"/>
<line x1="1100.98" y1="315.5" x2="1248.98" y2="310.5" stroke="black"/>
<line x1="1100.96" y1="340.502" x2="1247.96" y2="328.502" stroke="black"/>
<line x1="1100.95" y1="353.503" x2="1247.95" y2="338.503" stroke="black"/>
<line x1="1251.5" y1="314" x2="1251.5" y2="347" stroke="black"/>
<line x1="1241.5" y1="291" x2="1241.5" y2="307" stroke="black"/>
<line x1="1100.93" y1="364.505" x2="1247.93" y2="344.505" stroke="black"/>
<line x1="516.5" y1="299" x2="516.5" y2="421" stroke="black"/>
<line x1="517" y1="343.5" x2="521" y2="343.5" stroke="black"/>
<path d="M520 422.5L522 423.5L524.5 424L527 423.5L529 422.5" stroke="black"/>
<path d="M415 432.5L417.5 433.5L420 434L422.5 433.5L425 432.5" stroke="black"/>
<line x1="603.065" y1="410.496" x2="580.065" y2="413.496" stroke="black"/>
<line x1="530.039" y1="409.502" x2="581.039" y2="413.502" stroke="black"/>
<line x1="580.5" y1="413" x2="580.5" y2="432" stroke="black"/>
<line x1="530.5" y1="409" x2="530.5" y2="427" stroke="black"/>
<line x1="545.5" y1="410" x2="545.5" y2="429" stroke="black"/>
<line x1="562.5" y1="412" x2="562.5" y2="431" stroke="black"/>
<line x1="591.5" y1="412" x2="591.5" y2="430" stroke="black"/>
<line x1="683.5" y1="439" x2="683.5" y2="473" stroke="black"/>
<line x1="602.189" y1="451.537" x2="646.189" y2="469.537" stroke="black"/>
<line x1="1228.5" y1="292" x2="1228.5" y2="311" stroke="black"/>
<line x1="1231.5" y1="291" x2="1231.5" y2="311" stroke="black"/>
<line x1="1210.5" y1="292" x2="1210.5" y2="312" stroke="black"/>
<line x1="1213.5" y1="292" x2="1213.5" y2="312" stroke="black"/>
<line x1="1189.5" y1="292" x2="1189.5" y2="313" stroke="black"/>
<line x1="1192.5" y1="292" x2="1192.5" y2="313" stroke="black"/>
<line x1="1166.5" y1="292" x2="1166.5" y2="313" stroke="black"/>
<line x1="1169.5" y1="292" x2="1169.5" y2="313" stroke="black"/>
<line x1="1146.5" y1="292" x2="1146.5" y2="314" stroke="black"/>
<line x1="1143.5" y1="292" x2="1143.5" y2="314" stroke="black"/>
<line x1="1115.5" y1="293" x2="1115.5" y2="315" stroke="black"/>
<line x1="1119.5" y1="293" x2="1119.5" y2="315" stroke="black"/>
<line x1="1087.5" y1="293" x2="1087.5" y2="308" stroke="black"/>
<line x1="1091.5" y1="293" x2="1091.5" y2="308" stroke="black"/>
<line x1="1013.98" y1="310.501" x2="1057.98" y2="308.501" stroke="black"/>
<line x1="1057" y1="308.5" x2="1102" y2="308.5" stroke="black"/>
<line x1="1176.96" y1="116.502" x2="1227.96" y2="112.502" stroke="black"/>
<line x1="1227.16" y1="112.526" x2="1242.16" y2="117.526" stroke="black"/>
<line x1="1227.5" y1="113" x2="1227.5" y2="127" stroke="black"/>
<line x1="1186.5" y1="116" x2="1186.5" y2="129" stroke="black"/>
<line x1="1198.5" y1="115" x2="1198.5" y2="128" stroke="black"/>
<line x1="1210.5" y1="114" x2="1210.5" y2="128" stroke="black"/>
<line x1="865.5" y1="326" x2="865.5" y2="333" stroke="black"/>
<line x1="968.021" y1="430.5" x2="1065.02" y2="434.5" stroke="black"/>
<line x1="984.016" y1="424.5" x2="1077.02" y2="427.5" stroke="black"/>
<line x1="973.814" y1="430.536" x2="988.814" y2="424.536" stroke="black"/>
<line x1="1001.79" y1="432.547" x2="1016.79" y2="425.547" stroke="black"/>
<line x1="1005.79" y1="432.547" x2="1020.79" y2="425.547" stroke="black"/>
<line x1="1033.79" y1="433.547" x2="1048.79" y2="426.547" stroke="black"/>
<line x1="1038.78" y1="433.553" x2="1052.78" y2="426.553" stroke="black"/>
<line x1="1063.78" y1="434.553" x2="1077.78" y2="427.553" stroke="black"/>
<line x1="245.953" y1="447.502" x2="287.953" y2="443.502" stroke="black"/>
<line x1="295.95" y1="442.502" x2="415.95" y2="430.502" stroke="black"/>
<line x1="423.954" y1="429.502" x2="520.954" y2="420.502" stroke="black"/>
<path d="M1320 354C1341.2 340 1355.83 334.167 1360.5 333L1393.5 322L1432 314.5" stroke="black"/>
<line x1="551.062" y1="372.504" x2="559.062" y2="373.504" stroke="black"/>
</svg>
